<svg xmlns="http://www.w3.org/2000/svg" width="559.5" height="660.883" viewBox="0 0 559.5 660.883">
  <g id="about" transform="translate(0.038 0)">
    <path id="Path_53" data-name="Path 53" d="M907.562,808.237a43.245,43.245,0,0,1-11.572,10.755c-.954.6-1.933,1.175-2.929,1.7H869.62c.281-.562.553-1.132.818-1.7a81.194,81.194,0,0,0-16.894-93.1c14.169,4.377,27.265,12.909,35.831,25.009a54.894,54.894,0,0,1,8.711,19.585,81.977,81.977,0,0,0-6.531-41.221c11.5,9.358,20.462,22.173,23.876,36.6S916.367,796.307,907.562,808.237Z" transform="translate(-357.923 -160.527)" fill="#f0f0f0"/>
    <path id="Path_2533" data-name="Path 2533" d="M889.862,837.756H670.4v-1.793h219.79Z" transform="translate(-330.726 -176.873)" fill="#3f3d56"/>
    <path id="Path_54" data-name="Path 54" d="M542.14,306.1c0,32.9-11.5,60.993-33.37,81.9-15.523,14.842-39.433,35.644-39.433,57.638v18.2h-72.8v-18.2c0-22.224-24-43.069-39.433-57.638-21.381-20.172-33.37-50.17-33.37-81.9v-.673a109.206,109.206,0,1,1,218.411.673Z" transform="translate(-279.246 -81.922)" fill="#8268f9"/>
    <path id="Path_2546" data-name="Path 2546" d="M468.892,466a2.554,2.554,0,0,1-2.555-2.554v-18.2c0-21.394,21.1-41.366,36.506-55.949,1.277-1.211,2.521-2.384,3.715-3.53,21.312-20.375,32.578-48.056,32.578-80.053,0-59.8-46.844-106.645-106.644-106.645h-.3A106.463,106.463,0,0,0,325.848,305.112v.6c0,31.335,11.869,60.51,32.566,80.047,1.048.99,2.137,2.01,3.255,3.056,15.605,14.611,36.978,34.62,36.978,56.433v18.2a2.554,2.554,0,0,1-5.109,0v-18.2c0-19.6-20.436-38.731-35.361-52.708q-1.685-1.576-3.271-3.07c-21.713-20.5-34.167-51.025-34.167-83.757V305.1A111.582,111.582,0,0,1,432.184,193.955h.316a111.17,111.17,0,0,1,111.746,110.59q0,.583,0,1.167c0,33.426-11.811,62.384-34.156,83.746-1.2,1.147-2.449,2.33-3.735,3.547-14.731,13.945-34.912,33.043-34.912,52.239v18.2A2.555,2.555,0,0,1,468.889,466Z" transform="translate(-278.802 -81.536)" fill="#3f3d56"/>
    <path id="Path_2547" data-name="Path 2547" d="M471.274,550.451H422.738a4.257,4.257,0,1,1,0-8.515h48.536a4.257,4.257,0,1,1,0,8.515Z" transform="translate(-293.317 -133.21)" fill="#6c63ff"/>
    <path id="Path_55" data-name="Path 55" d="M454.287,584.142H443.841a19.964,19.964,0,0,1-10.3-2.853,2.378,2.378,0,0,1-1.08-2.737,2.458,2.458,0,0,1,2.386-1.824h28.431a2.458,2.458,0,0,1,2.386,1.824,2.379,2.379,0,0,1-1.08,2.737,19.963,19.963,0,0,1-10.3,2.853Z" transform="translate(-295.378 -138.377)" fill="#3f3d56"/>
    <path id="Path_56" data-name="Path 56" d="M471.93,566.794l-48.824-.005-.151-.324a4.024,4.024,0,0,1,.766-3.456,4.135,4.135,0,0,1,3.255-1.574h41.347a4.134,4.134,0,0,1,3.256,1.575,4,4,0,0,1,.776,3.412l-.077.329Z" transform="translate(-293.965 -136.106)" fill="#3f3d56"/>
    <path id="Path_2548" data-name="Path 2548" d="M312.263,200.291a4.241,4.241,0,0,1-2.8-1.05L272.9,167.326a4.257,4.257,0,1,1,5.6-6.415l36.563,31.915a4.257,4.257,0,0,1-2.8,7.465Z" transform="translate(-271.482 -76.473)" fill="#e4e4e4"/>
    <path id="Path_2549" data-name="Path 2549" d="M576.716,200.291a4.257,4.257,0,0,1-2.8-7.465l36.562-31.918a4.257,4.257,0,1,1,5.6,6.415l-36.563,31.915a4.241,4.241,0,0,1-2.8,1.053Z" transform="translate(-316.182 -76.472)" fill="#e4e4e4"/>
    <path id="Path_2550" data-name="Path 2550" d="M481.29,532.705h-72.8a4.258,4.258,0,0,1,0-8.515h72.8a4.258,4.258,0,0,1,0,8.515Z" transform="translate(-291.2 -130.575)" fill="#6c63ff"/>
    <path id="Path_57" data-name="Path 57" d="M445.733,402.705l-15.14,91H421.95l15.378-92.4a4.26,4.26,0,1,1,8.4,1.4Z" transform="translate(-293.832 -111.798)" fill="#e6e6e6"/>
    <path id="Path_58" data-name="Path 58" d="M479.892,493.705H471.25l-15.14-91a4.26,4.26,0,1,1,8.4-1.4Z" transform="translate(-298.896 -111.798)" fill="#e6e6e6"/>
    <path id="Path_2551" data-name="Path 2551" d="M419.485,399.258A4.258,4.258,0,0,1,423.743,395h46.827a4.258,4.258,0,0,1,0,8.515H423.743A4.258,4.258,0,0,1,419.485,399.258Z" transform="translate(-293.466 -111.391)" fill="#e6e6e6"/>
    <path id="Path_2553" data-name="Path 2553" d="M451.238,143.249a4.258,4.258,0,0,1-4.257-4.258v-72.8a4.257,4.257,0,1,1,8.515,0v72.8a4.257,4.257,0,0,1-4.257,4.258Z" transform="translate(-297.549 -61.931)" fill="#e4e4e4"/>
    <path id="Path_2559" data-name="Path 2559" d="M858.015,817.058H847.577l-4.966-40.266h15.405Z" transform="translate(-356.299 -168.086)" fill="#feb8b8"/>
    <path id="Path_2560" data-name="Path 2560" d="M857.958,833.605H824.3v-.426a13.1,13.1,0,0,1,13.1-13.1h20.561Z" transform="translate(-353.58 -174.514)" fill="#2f2e41"/>
    <path id="Path_2561" data-name="Path 2561" d="M765.805,816.2l-10.085-2.7,5.6-40.182,14.884,3.98Z" transform="translate(-343.396 -167.57)" fill="#feb8b8"/>
    <path id="Path_2562" data-name="Path 2562" d="M761.844,832.681l-32.518-8.7.11-.411a13.1,13.1,0,0,1,16.042-9.273h0l19.861,5.311Z" transform="translate(-339.477 -173.589)" fill="#2f2e41"/>
    <path id="Path_2563" data-name="Path 2563" d="M850.005,559.068l8.744,10.159-11.308,206.44H823.285L811.109,616.819,773.346,779.927l-25.112-6.159L771.067,566.6Z" transform="translate(-342.284 -135.754)" fill="#2f2e41"/>
    <path id="Path_2564" data-name="Path 2564" d="M780.177,400.439l24.052-12.067,36.987.651,31.829,16.287-18.11,90.444,7.823,47.156h0a192.892,192.892,0,0,1-92.248.76l-.242-.058s17.979-63.791,10.325-83.259Z" transform="translate(-345.556 -110.406)" fill="#e6e6e6"/>
    <path id="Path_2565" data-name="Path 2565" d="M854.119,341.2a27.243,27.243,0,1,0,0,.2Z" transform="translate(-349.917 -99.371)" fill="#feb8b8"/>
    <path id="Path_2567" data-name="Path 2567" d="M777.886,477.641a9.76,9.76,0,0,0,14.178,4.791L840.9,508.248l1.581-11.9-47.454-27.983a9.813,9.813,0,0,0-17.142,9.272Z" transform="translate(-346.585 -121.668)" fill="#feb8b8"/>
    <path id="Path_2568" data-name="Path 2568" d="M842.545,479.723a9.76,9.76,0,0,1-14.882,1.574l-53.3,14.505.464-15.1,53.024-13.771a9.813,9.813,0,0,1,14.7,12.8Z" transform="translate(-346.164 -121.694)" fill="#feb8b8"/>
    <path id="Path_2569" data-name="Path 2569" d="M870.839,408.916l10.393-.651s12.168,16.055,5.419,33.478c0,0,1.169,62.585-25.78,60.014s-35.465-2.571-35.465-2.571l8.089-22.565,18.1-5.588s-5.577-24.6,4.98-34.84Z" transform="translate(-353.744 -113.36)" fill="#e6e6e6"/>
    <path id="Path_2570" data-name="Path 2570" d="M784.319,407.072l-1.469-7.53s-21.662-.511-25.945,32.315c0,0-19.48,49.125-.387,55.451s40.1,0,40.1,0l-1.581-21.666-21.007-4.286s10.852-14.04,4.943-26.22Z" transform="translate(-342.269 -112.065)" fill="#e6e6e6"/>
    <path id="Path_2387" data-name="Path 2387" d="M836.085,353.236c-2-.786-4.223-.745-6.34-1.133A16.147,16.147,0,0,1,817.05,335.32a9.242,9.242,0,0,0,.049-3.008c-.525-2.187-2.956-3.362-5.19-3.624s-4.541.073-6.714-.508a10.018,10.018,0,0,1-6.71-7.325,16.594,16.594,0,0,1,1.079-10.187l1.042,2.173a8.446,8.446,0,0,0,2.134-4.132,5.326,5.326,0,0,1,4.4,2.786c1.346.6,1.182-2.475,2.524-3.083a2.519,2.519,0,0,1,1.788.233c2.957.992,6.093-.5,9.024-1.563a34.416,34.416,0,0,1,15.873-1.814,19.152,19.152,0,0,1,9.929,3.763,22.657,22.657,0,0,1,5.242,7.045c3.42,6.393,6,13.447,5.927,20.7A30.055,30.055,0,0,1,852.2,353.4c-1.747,2.542-7.391,11.362-11.142,10.391C836.344,362.57,841.726,355.448,836.085,353.236Z" transform="translate(-349.693 -98.028)" fill="#2f2e41"/>
  </g>
</svg>
