<svg xmlns="http://www.w3.org/2000/svg" width="824.297" height="706" viewBox="0 0 824.297 706">
  <g id="Group_152" data-name="Group 152" transform="translate(-75.243 12.147)">
    <g id="Group_15" data-name="Group 15" transform="translate(75.243 70.419)">
      <path id="Path_69" data-name="Path 69" d="M815.835,599.088C774.053,567.345,702.594,488.573,796.7,364.916,913.067,212,773.7,149.265,640.119,155.812,532.648,161.079,411.7,25.971,291.046,50.12,130.9,82.171,234.886,220.077,126.3,294.376,33.7,357.741,73.459,550.81,193.98,599.088Z" transform="translate(-75.243 -18.187)" fill="#dcedf9"/>
      <path id="Path_70" data-name="Path 70" d="M532.608,202.246c-.645-22.677-21.769-31.472-35.869-15.056A70.77,70.77,0,0,0,479.5,228.182c-3.229,40.427,32.141,28.712,45.357,7.066C530.493,226.017,532.933,213.706,532.608,202.246Z" transform="translate(280.2 97.498)" fill="#dcedf9"/>
      <path id="Path_71" data-name="Path 71" d="M290.519,31.8c-22.679.6-31.511,21.711-15.122,35.84a70.772,70.772,0,0,0,40.961,17.316c40.421,3.3,28.771-32.088,7.15-45.344C314.286,33.961,301.982,31.5,290.519,31.8Z" transform="translate(93.419 -31.778)" fill="#dcedf9"/>
      <path id="Path_72" data-name="Path 72" d="M144.61,163.576c8.919-20.857-6.573-37.7-26.256-28.7A70.774,70.774,0,0,0,85.52,164.866c-19.874,35.352,17.149,39.54,38.22,25.427C132.729,184.274,140.1,174.119,144.61,163.576Z" transform="translate(-71.199 56.735)" fill="#dcedf9"/>
    </g>
    <ellipse id="Ellipse_28" data-name="Ellipse 28" cx="382.042" cy="30.751" rx="382.042" ry="30.751" transform="translate(106.788 632.351)" fill="#dcedf9"/>
    <g id="Group_26" data-name="Group 26" transform="translate(77.249 393.827)">
      <g id="Group_20" data-name="Group 20" transform="translate(672.499 83.411)">
        <g id="Group_17" data-name="Group 17" transform="translate(0 23.747)">
          <path id="Path_73" data-name="Path 73" d="M435.017,417.613a35.526,35.526,0,0,0,2.645,8.265h62.049c2.444-5.822,2.436-11.884-1.179-17.032-22.607-32.2,5.284-31.553,9.7-53.56,4.844-24.143-18.154-11.662-11.178-43.991,9.455-43.814-11.039-64.857-21.41-39.566-9.786,23.857-4.754,33.622-28.69,51.512-19.848,14.833,14.8,38.577-4.876,62.03C433.694,395.267,433.025,407.2,435.017,417.613Z" transform="translate(-434.079 -260.838)" fill="#775bef"/>
          <g id="Group_16" data-name="Group 16" transform="translate(24.488 43.535)">
            <path id="Path_74" data-name="Path 74" d="M450.26,405.5c7.047-56.767,19.431-118.8,19.6-119.632a1.565,1.565,0,0,0-3.068-.617c-.169.835-12.618,63.222-19.682,120.249Z" transform="translate(-447.106 -283.999)" fill="#896eff"/>
          </g>
        </g>
        <g id="Group_19" data-name="Group 19" transform="translate(20.808)">
          <path id="Path_75" data-name="Path 75" d="M527.339,436.992c-.124-.466-.259-.932-.419-1.4-16.335-47.874,17.865-37.051,31.228-62.632,14.658-28.062-18.218-20.921,2.015-58.323,27.419-50.69,9.682-84.034-12.21-56.54C527.3,284.033,530,297.9,494.02,311.377c-29.833,11.175,4.4,52.938-28.316,74.82-13.944,9.327-19.06,23.823-20.344,37.389a45.243,45.243,0,0,0,.692,13.406Z" transform="translate(-445.149 -248.205)" fill="#896eff"/>
          <g id="Group_18" data-name="Group 18" transform="translate(28.591 51.6)">
            <path id="Path_76" data-name="Path 76" d="M464.748,412.843C493.41,347.22,528.681,279.532,529.165,278.6a2.011,2.011,0,1,0-3.564-1.865c-.5.946-36.378,69.814-65.243,136.108Z" transform="translate(-460.359 -275.656)" fill="#9d88f9"/>
          </g>
        </g>
      </g>
      <g id="Group_25" data-name="Group 25" transform="translate(0 83.411)">
        <g id="Group_22" data-name="Group 22" transform="translate(74.962 23.747)">
          <path id="Path_77" data-name="Path 77" d="M190.083,417.613a35.447,35.447,0,0,1-2.647,8.265H125.389c-2.446-5.822-2.438-11.884,1.179-17.032,22.607-32.2-5.284-31.553-9.7-53.56-4.846-24.143,18.152-11.662,11.177-43.991-9.453-43.814,11.041-64.857,21.412-39.566,9.784,23.857,4.754,33.622,28.688,51.512,19.85,14.833-14.8,38.577,4.878,62.03C191.4,395.267,192.074,407.2,190.083,417.613Z" transform="translate(-116.19 -260.838)" fill="#775bef"/>
          <g id="Group_21" data-name="Group 21" transform="translate(27.562 43.535)">
            <path id="Path_78" data-name="Path 78" d="M150.479,405.5c-7.047-56.767-19.431-118.8-19.6-119.632a1.565,1.565,0,0,1,3.07-.617c.169.835,12.617,63.222,19.681,120.249Z" transform="translate(-130.853 -283.999)" fill="#896eff"/>
          </g>
        </g>
        <g id="Group_24" data-name="Group 24">
          <path id="Path_79" data-name="Path 79" d="M123.105,436.992c.124-.466.259-.932.419-1.4,16.335-47.874-17.865-37.051-31.228-62.632-14.66-28.062,18.216-20.921-2.015-58.323C62.861,263.948,80.6,230.6,102.49,258.1c20.654,25.934,17.955,39.8,53.933,53.278,29.835,11.175-4.4,52.938,28.318,74.82,13.944,9.327,19.06,23.823,20.344,37.389a45.307,45.307,0,0,1-.692,13.406Z" transform="translate(-76.31 -248.205)" fill="#896eff"/>
          <g id="Group_23" data-name="Group 23" transform="translate(31.357 51.6)">
            <path id="Path_80" data-name="Path 80" d="M157.639,412.843C128.977,347.22,93.708,279.532,93.221,278.6a2.012,2.012,0,0,1,3.566-1.865c.5.946,36.376,69.814,65.243,136.108Z" transform="translate(-92.992 -275.656)" fill="#9986ee"/>
          </g>
        </g>
      </g>
      <path id="Path_81" data-name="Path 81" d="M235.711,438.792h4.718l-7.25-20.306A95.626,95.626,0,0,1,246.2,382.258c13.476-22.485,16.929-38.414,5.647-38.325-14.632.115-25.122,35.713-22.064,65.042l-17.256-48.339c.7-6.252,3.263-18.2,12.359-33.22,12.036-19.878,21.325-43.19,6.513-41.925-14.863,1.271-25.532,37.064-21.87,66.745l-14.389-40.308c.429-3.915,2.023-11.483,7.8-21.019,7.585-12.528,13.44-27.22,4.105-26.421-9.395.8-16.13,23.487-13.765,42.222l-3.045-8.534c-2.8-25.759-20.562-54.269-31.417-51.9s-.212,18.739,13.85,33.29c6.068,6.278,9.919,13.164,12.626,17.981l5.921,16.586c-10.57-12.895-26.053-22.145-32.761-17.553-7.729,5.293,6.105,12.959,19.91,17.85a57.588,57.588,0,0,1,15.959,8.408l18.267,51.171c-16.617-22.979-44.346-40.726-55.84-32.853-12.265,8.4,9.688,20.558,31.59,28.322,14.085,4.992,23.1,11.256,28.244,15.722l14.224,39.846c-16.034-25.109-46.7-45.79-58.938-37.406-12.265,8.4,9.686,20.56,31.588,28.323,16.35,5.793,25.867,13.3,30.434,17.722Z" transform="translate(-8.652 -166.611)" fill="#896eff"/>
      <path id="Path_82" data-name="Path 82" d="M389.612,379.65l-4.639-.857,10.82-18.65a95.61,95.61,0,0,0-6.222-37.991c-9.163-24.56-9.664-40.85,1.414-38.712,14.368,2.773,18.214,39.682,9.876,67.968l25.752-44.4c.447-6.274.1-18.489-6.113-34.914-8.224-21.735-13.12-46.346,1.214-42.41,14.383,3.951,18.368,41.087,9.374,69.607l21.476-37.023c.291-3.929.1-11.658-3.846-22.085-5.182-13.7-8.269-29.209.765-26.727,9.092,2.5,11.592,26.026,5.861,44.021l4.547-7.838c7.43-24.821,30.081-49.628,40.325-45.322s-3.2,18.464-19.669,30.216c-7.109,5.071-12.147,11.143-15.684,15.389l-8.837,15.231c12.737-10.758,29.643-17.04,35.4-11.3,6.639,6.609-8.357,11.632-22.82,13.932a57.621,57.621,0,0,0-17.224,5.367l-27.261,47c20.517-19.575,51.008-31.987,60.88-22.158,10.536,10.489-13.261,18.457-36.211,22.109-14.758,2.35-24.758,6.872-30.632,10.327l-21.229,36.6c20.331-21.778,54.241-36.54,64.756-26.072,10.536,10.489-13.261,18.457-36.211,22.109-17.13,2.727-27.852,8.384-33.149,11.9Z" transform="translate(193.208 -203.83)" fill="#896eff"/>
    </g>
    <g id="Group_30" data-name="Group 30" transform="translate(450.313 528.066)">
      <rect id="Rectangle_40" data-name="Rectangle 40" width="149.224" height="216.027" transform="matrix(0.001, -1, 1, 0.001, 0, 149.224)" fill="#ffaa01"/>
      <path id="Path_83" data-name="Path 83" d="M490.92,275.56l-.014,9.566L382.763,380.7,274.887,284.816l.014-9.567,107.868,96.214Z" transform="translate(-274.685 -275.243)" fill="#f88800"/>
      <g id="Group_27" data-name="Group 27" transform="translate(0 72.117)">
        <path id="Path_84" data-name="Path 84" d="M362.085,318.847l-81.049,71.881-6.257-.009.005-3.8,82.654-73.3Z" transform="translate(-274.78 -313.612)" fill="#f88800"/>
      </g>
      <g id="Group_29" data-name="Group 29" transform="translate(128.362 72.19)">
        <g id="Group_28" data-name="Group 28">
          <path id="Path_85" data-name="Path 85" d="M430.737,387.7l0,3.3-6.823-.01-80.841-72.114,4.661-5.222Z" transform="translate(-343.068 -313.651)" fill="#f88800"/>
        </g>
      </g>
      <path id="Path_86" data-name="Path 86" d="M274.891,275.246l107.875,96.22,108.152-95.909Z" transform="translate(-274.682 -275.246)" fill="#fdcc50"/>
    </g>
    <g id="Group_36" data-name="Group 36" transform="translate(472.429 -12.147)">
      <g id="Group_33" data-name="Group 33" transform="translate(58.081 25.562)">
        <g id="Group_31" data-name="Group 31">
          <path id="Path_87" data-name="Path 87" d="M322.434,5.4a1.276,1.276,0,0,1-.632-.092c-2.188-.925-3.47-1.355-3.483-1.359a1.28,1.28,0,1,1,.81-2.429c.054.017,1.378.461,3.669,1.427a1.281,1.281,0,0,1-.365,2.453Z" transform="translate(-317.444 -1.452)" fill="#dcedf9"/>
        </g>
        <g id="Group_32" data-name="Group 32" transform="translate(10.461 4.614)">
          <path id="Path_88" data-name="Path 88" d="M354.846,40.89c.87,2.323,1.686,4.718,2.423,7.12a1.284,1.284,0,0,0,1.357.9,1.414,1.414,0,0,0,.244-.051,1.282,1.282,0,0,0,.848-1.6c-.754-2.451-1.586-4.895-2.476-7.267a1.28,1.28,0,0,0-2.4.9Z" transform="translate(-295.074 27.108)" fill="#dcedf9"/>
          <path id="Path_89" data-name="Path 89" d="M357.176,48.469c.587,2.4,1.117,4.882,1.575,7.359a1.278,1.278,0,0,0,1.393,1.039.968.968,0,0,0,.1-.013,1.282,1.282,0,0,0,1.026-1.492c-.468-2.524-1.009-5.049-1.607-7.5a1.28,1.28,0,0,0-2.487.607Z" transform="translate(-292.985 33.903)" fill="#dcedf9"/>
          <path id="Path_90" data-name="Path 90" d="M360.719,73.047a1.283,1.283,0,0,0,1.145-1.254c.039-2.568.021-5.145-.056-7.66a1.28,1.28,0,1,0-2.558.077c.075,2.476.094,5.015.055,7.543a1.28,1.28,0,0,0,1.261,1.3A1.411,1.411,0,0,0,360.719,73.047Z" transform="translate(-291.129 47.984)" fill="#dcedf9"/>
          <path id="Path_91" data-name="Path 91" d="M359.728,54.842a1.278,1.278,0,0,0-1.1,1.434c.15,1.158.288,2.327.408,3.476.141,1.325.265,2.679.37,4.021a1.28,1.28,0,0,0,1.376,1.177l.036,0a1.282,1.282,0,0,0,1.141-1.374c-.107-1.365-.235-2.741-.376-4.088-.124-1.169-.263-2.359-.417-3.538a1.278,1.278,0,0,0-1.4-1.107Z" transform="translate(-291.688 40.892)" fill="#dcedf9"/>
          <path id="Path_92" data-name="Path 92" d="M354.895,40.424a1.282,1.282,0,0,0,1.3.75,1.261,1.261,0,0,0,.387-.1,1.281,1.281,0,0,0,.647-1.692c-1.043-2.333-2.173-4.656-3.357-6.908a1.28,1.28,0,0,0-2.267,1.19C352.769,35.865,353.874,38.142,354.895,40.424Z" transform="translate(-297.98 20.619)" fill="#dcedf9"/>
          <path id="Path_93" data-name="Path 93" d="M323.708,6.327c2.2,1.124,4.415,2.346,6.594,3.635a1.282,1.282,0,0,0,1.754-.449,1.282,1.282,0,0,0-.449-1.754c-2.224-1.316-4.489-2.566-6.735-3.712a1.28,1.28,0,1,0-1.163,2.28Z" transform="translate(-323.009 -3.906)" fill="#dcedf9"/>
          <path id="Path_94" data-name="Path 94" d="M336.657,14.758a1.281,1.281,0,0,0,1.555-2.036c-2.028-1.547-4.128-3.055-6.241-4.479a1.28,1.28,0,1,0-1.43,2.122C332.612,11.762,334.67,13.242,336.657,14.758Z" transform="translate(-316.881 -0.284)" fill="#dcedf9"/>
          <path id="Path_95" data-name="Path 95" d="M342.4,20.269a1.28,1.28,0,1,0,1.786-1.835c-1.821-1.773-3.727-3.517-5.665-5.19a1.28,1.28,0,1,0-1.671,1.94C338.748,16.821,340.616,18.532,342.4,20.269Z" transform="translate(-311.226 4.035)" fill="#dcedf9"/>
          <path id="Path_96" data-name="Path 96" d="M347.415,26.438a1.28,1.28,0,1,0,2-1.6c-1.59-1.987-3.269-3.951-4.987-5.842a1.28,1.28,0,1,0-1.895,1.722C344.214,22.568,345.857,24.493,347.415,26.438Z" transform="translate(-306.128 8.997)" fill="#dcedf9"/>
          <path id="Path_97" data-name="Path 97" d="M351.6,33.191a1.279,1.279,0,1,0,2.184-1.333c-1.327-2.177-2.744-4.338-4.209-6.427a1.28,1.28,0,0,0-2.1,1.47C348.918,28.944,350.3,31.061,351.6,33.191Z" transform="translate(-301.683 14.549)" fill="#dcedf9"/>
        </g>
      </g>
      <g id="Group_35" data-name="Group 35">
        <g id="Group_34" data-name="Group 34">
          <path id="Path_98" data-name="Path 98" d="M349.59,8.6l5.6-20.75-68.647.59Z" transform="translate(-286.545 12.147)" fill="#fdcc50"/>
          <path id="Path_99" data-name="Path 99" d="M286.545-11.835l59.713,25.171.158.068,2.569,4.255.605-9.333Z" transform="translate(-286.545 12.422)" fill="#ffaa01"/>
          <path id="Path_100" data-name="Path 100" d="M322.368,5.848,316.8,4.971l3-3.378Z" transform="translate(-259.928 24.234)" fill="#f88800"/>
          <path id="Path_101" data-name="Path 101" d="M338.9,10.236l7.515,3.168L330.942,30.84l-44.4-42.673Z" transform="translate(-286.545 12.423)" fill="#fdcc50"/>
        </g>
      </g>
    </g>
    <g id="Group_96" data-name="Group 96" transform="translate(121.123 44.425)">
      <g id="Group_58" data-name="Group 58" transform="translate(694.16 12.211)">
        <g id="Group_37" data-name="Group 37" transform="translate(49.491 79.455)">
          <path id="Path_102" data-name="Path 102" d="M505.242,66.715a9.972,9.972,0,1,1-9.97,9.972A9.984,9.984,0,0,1,505.242,66.715Zm0,16.816a6.843,6.843,0,1,0-6.842-6.844A6.851,6.851,0,0,0,505.242,83.531Z" transform="translate(-495.272 -66.715)" fill="#896eff"/>
        </g>
        <g id="Group_38" data-name="Group 38" transform="translate(13.594 44.474)">
          <path id="Path_103" data-name="Path 103" d="M486.147,48.1a9.972,9.972,0,1,1-9.972,9.972A9.982,9.982,0,0,1,486.147,48.1Zm0,16.814a6.843,6.843,0,1,0-6.844-6.842A6.85,6.85,0,0,0,486.147,64.919Z" transform="translate(-476.175 -48.105)" fill="#ffaa01"/>
        </g>
        <g id="Group_45" data-name="Group 45">
          <g id="Group_41" data-name="Group 41" transform="translate(9.68)">
            <g id="Group_39" data-name="Group 39" transform="translate(0 12.071)">
              <path id="Path_104" data-name="Path 104" d="M475.659,30.867a1.564,1.564,0,0,1,1.564,1.564v6.9a1.565,1.565,0,0,1-3.13,0v-6.9A1.564,1.564,0,0,1,475.659,30.867Z" transform="translate(-474.093 -30.867)" fill="#896eff"/>
            </g>
            <g id="Group_40" data-name="Group 40">
              <path id="Path_105" data-name="Path 105" d="M475.659,24.445a1.566,1.566,0,0,1,1.564,1.566v6.9a1.565,1.565,0,0,1-3.13,0v-6.9A1.566,1.566,0,0,1,475.659,24.445Z" transform="translate(-474.093 -24.445)" fill="#896eff"/>
            </g>
          </g>
          <g id="Group_44" data-name="Group 44" transform="translate(0 9.485)">
            <g id="Group_42" data-name="Group 42">
              <path id="Path_106" data-name="Path 106" d="M470.507,29.491h6.2a1.564,1.564,0,0,1,0,3.128h-6.2a1.564,1.564,0,0,1,0-3.128Z" transform="translate(-468.943 -29.491)" fill="#896eff"/>
            </g>
            <g id="Group_43" data-name="Group 43" transform="translate(13.167)">
              <path id="Path_107" data-name="Path 107" d="M477.512,29.491h6.2a1.564,1.564,0,0,1,0,3.128h-6.2a1.564,1.564,0,0,1,0-3.128Z" transform="translate(-475.948 -29.491)" fill="#896eff"/>
            </g>
          </g>
        </g>
        <g id="Group_57" data-name="Group 57" transform="translate(55.058 38.65)">
          <g id="Group_56" data-name="Group 56">
            <g id="Group_50" data-name="Group 50" transform="translate(9.682)">
              <g id="Group_47" data-name="Group 47" transform="translate(0 12.071)">
                <g id="Group_46" data-name="Group 46">
                  <path id="Path_108" data-name="Path 108" d="M504.949,51.429a1.565,1.565,0,0,1,1.564,1.564v6.9a1.564,1.564,0,1,1-3.128,0v-6.9A1.564,1.564,0,0,1,504.949,51.429Z" transform="translate(-503.385 -51.429)" fill="#ffaa01"/>
                </g>
              </g>
              <g id="Group_49" data-name="Group 49">
                <g id="Group_48" data-name="Group 48">
                  <path id="Path_109" data-name="Path 109" d="M504.949,45.007a1.565,1.565,0,0,1,1.564,1.564v6.9a1.564,1.564,0,1,1-3.128,0v-6.9A1.564,1.564,0,0,1,504.949,45.007Z" transform="translate(-503.385 -45.007)" fill="#ffaa01"/>
                </g>
              </g>
            </g>
            <g id="Group_55" data-name="Group 55" transform="translate(0 9.485)">
              <g id="Group_52" data-name="Group 52">
                <g id="Group_51" data-name="Group 51">
                  <path id="Path_110" data-name="Path 110" d="M499.8,50.053h6.2a1.564,1.564,0,1,1,0,3.128h-6.2a1.564,1.564,0,0,1,0-3.128Z" transform="translate(-498.234 -50.053)" fill="#ffaa01"/>
                </g>
              </g>
              <g id="Group_54" data-name="Group 54" transform="translate(13.167)">
                <g id="Group_53" data-name="Group 53">
                  <path id="Path_111" data-name="Path 111" d="M506.8,50.053H513a1.564,1.564,0,0,1,0,3.128h-6.2a1.564,1.564,0,0,1,0-3.128Z" transform="translate(-505.239 -50.053)" fill="#ffaa01"/>
                </g>
              </g>
            </g>
          </g>
        </g>
      </g>
      <g id="Group_86" data-name="Group 86" transform="translate(20.934)">
        <g id="Group_61" data-name="Group 61" transform="translate(51.57 41.055)">
          <g id="Group_60" data-name="Group 60">
            <g id="Group_59" data-name="Group 59">
              <path id="Path_112" data-name="Path 112" d="M148.193,39.79a9.972,9.972,0,1,1-9.97,9.972A9.984,9.984,0,0,1,148.193,39.79Zm0,3.128a6.843,6.843,0,1,0,6.844,6.844A6.852,6.852,0,0,0,148.193,42.918Z" transform="translate(-138.223 -39.79)" fill="#896eff"/>
            </g>
          </g>
        </g>
        <g id="Group_65" data-name="Group 65" transform="translate(15.254 8.118)">
          <g id="Group_64" data-name="Group 64">
            <g id="Group_63" data-name="Group 63">
              <g id="Group_62" data-name="Group 62">
                <path id="Path_113" data-name="Path 113" d="M128.875,22.268a9.971,9.971,0,1,1-9.972,9.97A9.98,9.98,0,0,1,128.875,22.268Zm0,3.128a6.843,6.843,0,1,0,6.842,6.842A6.851,6.851,0,0,0,128.875,25.4Z" transform="translate(-118.903 -22.268)" fill="#ffaa01"/>
              </g>
            </g>
          </g>
        </g>
        <g id="Group_72" data-name="Group 72" transform="translate(0 53.869)">
          <g id="Group_68" data-name="Group 68" transform="translate(0 9.682)">
            <g id="Group_66" data-name="Group 66" transform="translate(12.071)">
              <path id="Path_114" data-name="Path 114" d="M117.21,53.322a1.564,1.564,0,0,0,1.564,1.564h6.9a1.564,1.564,0,1,0,0-3.128h-6.9A1.563,1.563,0,0,0,117.21,53.322Z" transform="translate(-117.21 -51.758)" fill="#896eff"/>
            </g>
            <g id="Group_67" data-name="Group 67">
              <path id="Path_115" data-name="Path 115" d="M110.788,53.322a1.564,1.564,0,0,0,1.564,1.564h6.9a1.564,1.564,0,1,0,0-3.128h-6.9A1.563,1.563,0,0,0,110.788,53.322Z" transform="translate(-110.788 -51.758)" fill="#896eff"/>
            </g>
          </g>
          <g id="Group_71" data-name="Group 71" transform="translate(9.483)">
            <g id="Group_69" data-name="Group 69">
              <path id="Path_116" data-name="Path 116" d="M115.833,48.171v6.2a1.565,1.565,0,0,0,3.13,0v-6.2a1.565,1.565,0,0,0-3.13,0Z" transform="translate(-115.833 -46.607)" fill="#896eff"/>
            </g>
            <g id="Group_70" data-name="Group 70" transform="translate(0 13.167)">
              <path id="Path_117" data-name="Path 117" d="M115.833,55.176v6.2a1.565,1.565,0,0,0,3.13,0v-6.2a1.565,1.565,0,0,0-3.13,0Z" transform="translate(-115.833 -53.612)" fill="#896eff"/>
            </g>
          </g>
        </g>
        <g id="Group_85" data-name="Group 85" transform="translate(73.042)">
          <g id="Group_84" data-name="Group 84">
            <g id="Group_78" data-name="Group 78" transform="translate(0 9.682)">
              <g id="Group_74" data-name="Group 74" transform="translate(12.071)">
                <g id="Group_73" data-name="Group 73">
                  <path id="Path_118" data-name="Path 118" d="M156.068,24.664a1.564,1.564,0,0,0,1.564,1.564h6.9a1.564,1.564,0,0,0,0-3.128h-6.9A1.563,1.563,0,0,0,156.068,24.664Z" transform="translate(-156.068 -23.1)" fill="#ffaa01"/>
                </g>
              </g>
              <g id="Group_77" data-name="Group 77">
                <g id="Group_76" data-name="Group 76">
                  <g id="Group_75" data-name="Group 75">
                    <path id="Path_119" data-name="Path 119" d="M149.646,24.664a1.565,1.565,0,0,0,1.564,1.564h6.9a1.564,1.564,0,1,0,0-3.128h-6.9A1.564,1.564,0,0,0,149.646,24.664Z" transform="translate(-149.646 -23.1)" fill="#ffaa01"/>
                  </g>
                </g>
              </g>
            </g>
            <g id="Group_83" data-name="Group 83" transform="translate(9.485)">
              <g id="Group_80" data-name="Group 80">
                <g id="Group_79" data-name="Group 79">
                  <path id="Path_120" data-name="Path 120" d="M154.692,19.513v6.2a1.564,1.564,0,1,0,3.128,0v-6.2a1.564,1.564,0,1,0-3.128,0Z" transform="translate(-154.692 -17.949)" fill="#ffaa01"/>
                </g>
              </g>
              <g id="Group_82" data-name="Group 82" transform="translate(0 13.167)">
                <g id="Group_81" data-name="Group 81">
                  <path id="Path_121" data-name="Path 121" d="M154.692,26.518v6.2a1.564,1.564,0,1,0,3.128,0v-6.2a1.564,1.564,0,1,0-3.128,0Z" transform="translate(-154.692 -24.954)" fill="#ffaa01"/>
                </g>
              </g>
            </g>
          </g>
        </g>
      </g>
      <g id="Group_91" data-name="Group 91" transform="translate(0 131.596)">
        <g id="Group_89" data-name="Group 89">
          <g id="Group_88" data-name="Group 88">
            <g id="Group_87" data-name="Group 87">
              <rect id="Rectangle_41" data-name="Rectangle 41" width="44.003" height="44.003" rx="4.264" fill="#ffaa01"/>
            </g>
          </g>
        </g>
        <g id="Group_90" data-name="Group 90" transform="translate(9.419 7.407)">
          <path id="Path_122" data-name="Path 122" d="M129.692,97.433c-.073-.3-.143-.607-.22-.91a6.783,6.783,0,0,0-1.494-2.844,6.9,6.9,0,0,0-1.788-1.492,2.041,2.041,0,0,0-2.671.523q-1.841,2.219-3.66,4.457a2.116,2.116,0,0,0,.3,2.989c.66.585,1.355,1.128,2.038,1.688a2.632,2.632,0,0,0,.267.173,19.622,19.622,0,0,1-8.348,10.188c-.479-.4-.981-.818-1.485-1.235-.259-.214-.515-.43-.78-.633a2.1,2.1,0,0,0-2.545-.13,3.231,3.231,0,0,0-.68.669c-1.109,1.336-2.2,2.688-3.312,4.024a2.832,2.832,0,0,0-.652,1.434l.058.6a4.576,4.576,0,0,0,.592.994,7.539,7.539,0,0,0,2.214,1.607,6.236,6.236,0,0,0,3.128.63,12.03,12.03,0,0,0,2.135-.41,17.164,17.164,0,0,0,4.961-2.391,26.192,26.192,0,0,0,4.18-3.539,42.617,42.617,0,0,0,4.624-5.778,21.078,21.078,0,0,0,2.641-5.175,11.674,11.674,0,0,0,.579-2.88c.026-.4.036-.8.053-1.192Q129.76,98.114,129.692,97.433Z" transform="translate(-104.662 -91.898)" fill="#fff"/>
        </g>
      </g>
      <g id="Group_95" data-name="Group 95" transform="translate(676.068 386.243)">
        <g id="Group_93" data-name="Group 93">
          <g id="Group_92" data-name="Group 92">
            <rect id="Rectangle_42" data-name="Rectangle 42" width="44.669" height="44.669" rx="3.4" fill="#ffaa01"/>
          </g>
        </g>
        <g id="Group_94" data-name="Group 94" transform="translate(8.062 8.862)">
          <path id="Path_123" data-name="Path 123" d="M492.152,240.772c0,5.57-3.118,8.457-6.852,8.457a4.7,4.7,0,0,1-4.607-2.538,4.539,4.539,0,0,1-4.432,2.538c-3.148,0-6.18-2.771-6.18-7.261s2.946-7.231,6.18-7.231a4.614,4.614,0,0,1,3.588,1.429V235h5.6v8.34c0,1.226.5,1.6,1.137,1.6.818,0,1.487-.818,1.487-4.083,0-5.278-3.936-9.009-9.944-9.009-5.975,0-10,4.2-10,9.739,0,5.716,3.936,9.8,9.883,9.8A14.053,14.053,0,0,0,483.9,250.1l1.226,3.586a17.759,17.759,0,0,1-7.117,1.4c-8.778,0-14.4-5.859-14.4-13.5,0-7.524,5.626-13.444,14.521-13.444C486.526,228.144,492.152,233.772,492.152,240.772Zm-12.186,1.2c0-1.75-.906-2.654-2.1-2.654s-2.07.9-2.07,2.654c0,1.778.872,2.68,2.07,2.68S479.966,243.746,479.966,241.967Z" transform="translate(-463.607 -228.144)" fill="#fff"/>
        </g>
      </g>
    </g>
    <g id="Group_103" data-name="Group 103" transform="translate(317.732 -3.219)">
      <g id="Group_98" data-name="Group 98" transform="translate(0 114.624)">
        <path id="Path_124" data-name="Path 124" d="M645.828,130.725v142.5a24.1,24.1,0,0,1-24.1,24.1H280.319V53.68H568.784a77.042,77.042,0,0,1,77.043,77.045Z" transform="translate(-137.325 -53.496)" fill="#896eff"/>
        <path id="Path_125" data-name="Path 125" d="M619.612,154.426V184.6a24.1,24.1,0,0,1-24.1,24.1H310.119v-54.28Z" transform="translate(-111.11 35.131)" fill="#a18dfb"/>
        <path id="Path_126" data-name="Path 126" d="M395.384,122.413V297.419H241.021V122.413a68.83,68.83,0,0,1,68.831-68.831h17.126A68.829,68.829,0,0,1,395.384,122.413Z" transform="translate(-171.896 -53.582)" fill="#896eff"/>
        <path id="Path_127" data-name="Path 127" d="M387.368,122.413V297.419H250.133V122.413a68.831,68.831,0,0,1,68.4-68.831h.425A68.829,68.829,0,0,1,387.368,122.413Z" transform="translate(-163.88 -53.582)" fill="#624acb"/>
        <g id="Group_97" data-name="Group 97" transform="translate(0 233.836)">
          <path id="Path_128" data-name="Path 128" d="M273.37,183.3,214.588,286.8c-21.592,38.015-8.274,68.829,29.737,68.829h17.128c37.955-.231,85.985-30.955,107.5-68.829l58.782-103.5Z" transform="translate(-204.247 -173.302)" fill="#896eff"/>
          <rect id="Rectangle_43" data-name="Rectangle 43" width="154.362" height="9.999" transform="translate(69.126)" fill="#896eff"/>
        </g>
      </g>
      <g id="Group_101" data-name="Group 101" transform="translate(360.033)">
        <g id="Group_99" data-name="Group 99" transform="translate(0 147.395)">
          <path id="Path_180" data-name="Path 180" d="M24.749,0A24.749,24.749,0,1,1,0,24.749,24.749,24.749,0,0,1,24.749,0Z" transform="translate(0 4.714)" fill="#6c57c9"/>
          <circle id="Ellipse_30" data-name="Ellipse 30" cx="24.749" cy="24.749" r="24.749" fill="#2e3052"/>
          <path id="Path_129" data-name="Path 129" d="M415.679,105.29a14.378,14.378,0,1,1,14.378-14.378A14.395,14.395,0,0,1,415.679,105.29Z" transform="translate(-390.93 -66.162)" fill="#524e84"/>
        </g>
        <g id="Group_100" data-name="Group 100" transform="translate(20.608)">
          <path id="Path_130" data-name="Path 130" d="M415.029-3.9V161.157a4.141,4.141,0,0,1-8.282,0V-3.9Z" transform="translate(-406.747 10.473)" fill="#ffaa01"/>
          <path id="Path_131" data-name="Path 131" d="M473.794,29.936H406.747V-7.4h67.047L458.551,11.269Z" transform="translate(-406.747 7.398)" fill="#2e3052"/>
          <path id="Path_132" data-name="Path 132" d="M415.03,12.463v2.249l-8.283,2.895V12.463Z" transform="translate(-406.747 24.869)" fill="#f88800"/>
        </g>
      </g>
      <g id="Group_102" data-name="Group 102" transform="translate(235.819 358.504)">
        <rect id="Rectangle_44" data-name="Rectangle 44" width="33" height="315.909" transform="translate(56.655)" fill="#896eff"/>
        <path id="Rectangle_45" data-name="Rectangle 45" d="M10.7,0h124.9a10.7,10.7,0,0,1,10.7,10.7V27.278a0,0,0,0,1,0,0H0a0,0,0,0,1,0,0V10.7A10.7,10.7,0,0,1,10.7,0Z" transform="translate(0 295.175)" fill="#896eff"/>
        <path id="Path_133" data-name="Path 133" d="M392.843,183.326v8.519l-33,11.55V183.326Z" transform="translate(-303.187 -183.326)" fill="#5235cc"/>
      </g>
    </g>
    <g id="Group_151" data-name="Group 151" transform="translate(203.341 58.404)">
      <g id="Group_150" data-name="Group 150" transform="translate(0 0)">
        <path id="Path_134" data-name="Path 134" d="M219.17,149.4c12.244,44.536,52.581,56.97,52.581,56.97a121.158,121.158,0,0,0,36.19-13.741c-2.981-7.139-4.273-14.391-5.928-23.81-14.855,4.133-27.684,6.34-27.684,6.34-31.359-14.534-50.378-84.106-50.378-84.106C205.311,108.743,219.17,149.4,219.17,149.4Z" transform="translate(-81.087 32.38)" fill="#007fe9"/>
        <g id="Group_110" data-name="Group 110" transform="translate(0 539.639)">
          <path id="Path_135" data-name="Path 135" d="M166.946,312.473l-13.269,17.746s2.423,7.932,12.248,14.047l15.868-20.419Z" transform="translate(-134.342 -312.473)" fill="#fba691"/>
          <g id="Group_109" data-name="Group 109" transform="translate(0 14.834)">
            <g id="Group_104" data-name="Group 104">
              <path id="Path_136" data-name="Path 136" d="M172.771,331.826s6.209-1.336,8.331.81,7.453,31.34,12.44,37.728-.032,9.78-3.1,11.075S143.391,338.8,143.391,338.8s10.872-15.019,16.115-17.936S167.207,328.736,172.771,331.826Z" transform="translate(-143.391 -320.365)" fill="#ffaa01"/>
            </g>
            <g id="Group_108" data-name="Group 108" transform="translate(28.751 20.149)">
              <g id="Group_105" data-name="Group 105" transform="translate(0.724 4.671)">
                <path id="Path_137" data-name="Path 137" d="M159.8,337.249a1.117,1.117,0,0,1-.637-.624,1.179,1.179,0,0,1,.6-1.519c.192-.086,4.735-2.071,8.367-1.4a7.724,7.724,0,0,1,6.081,5.214,1.172,1.172,0,0,1-.774,1.436,1.106,1.106,0,0,1-1.389-.78,5.512,5.512,0,0,0-4.342-3.6c-2.959-.545-7.032,1.227-7.071,1.246A1.1,1.1,0,0,1,159.8,337.249Z" transform="translate(-159.072 -333.569)" fill="#fff"/>
              </g>
              <g id="Group_106" data-name="Group 106">
                <path id="Path_138" data-name="Path 138" d="M159.409,334.767a1.117,1.117,0,0,1-.635-.626,1.178,1.178,0,0,1,.6-1.519c.192-.085,4.733-2.07,8.365-1.4a7.72,7.72,0,0,1,6.083,5.216,1.174,1.174,0,0,1-.776,1.436,1.106,1.106,0,0,1-1.389-.78,5.5,5.5,0,0,0-4.34-3.6c-2.972-.547-7.032,1.227-7.071,1.246A1.093,1.093,0,0,1,159.409,334.767Z" transform="translate(-158.686 -331.084)" fill="#fff"/>
              </g>
              <g id="Group_107" data-name="Group 107" transform="translate(2.758 9.586)">
                <path id="Path_139" data-name="Path 139" d="M160.878,339.865a1.117,1.117,0,0,1-.637-.624,1.181,1.181,0,0,1,.6-1.521c.192-.085,4.735-2.07,8.367-1.4a7.721,7.721,0,0,1,6.083,5.216,1.176,1.176,0,0,1-.776,1.436,1.109,1.109,0,0,1-1.389-.782,5.5,5.5,0,0,0-4.342-3.6c-2.972-.549-7.03,1.227-7.071,1.246A1.1,1.1,0,0,1,160.878,339.865Z" transform="translate(-160.154 -336.183)" fill="#fff"/>
              </g>
            </g>
          </g>
        </g>
        <g id="Group_117" data-name="Group 117" transform="translate(111.703 568.629)">
          <path id="Path_140" data-name="Path 140" d="M204.03,329.377l2.011,22.066s7.109,4.276,18.5,2.246L222.677,327.9Z" transform="translate(-201.75 -327.896)" fill="#fba691"/>
          <g id="Group_116" data-name="Group 116" transform="translate(0 17.497)">
            <g id="Group_111" data-name="Group 111">
              <path id="Path_141" data-name="Path 141" d="M221.59,342.4s3.882-5.372,7.028-5.19,27.669,19.111,36,20.585,6.8,7.611,5.327,10.759-65.959,1.342-65.959,1.342-2.378-20.816-.346-26.739S215.112,343.888,221.59,342.4Z" transform="translate(-202.817 -337.205)" fill="#ffaa01"/>
            </g>
            <g id="Group_115" data-name="Group 115" transform="translate(29.681 7.018)">
              <g id="Group_112" data-name="Group 112" transform="translate(3.537 3.135)">
                <path id="Path_142" data-name="Path 142" d="M222,351.706a1.122,1.122,0,0,1-.889-.075,1.181,1.181,0,0,1-.506-1.555c.094-.188,2.325-4.615,5.551-6.414a7.722,7.722,0,0,1,8.011.135,1.172,1.172,0,0,1,.318,1.6,1.108,1.108,0,0,1-1.568.286,5.5,5.5,0,0,0-5.637,0c-2.626,1.466-4.632,5.432-4.65,5.472A1.107,1.107,0,0,1,222,351.706Z" transform="translate(-220.489 -342.606)" fill="#fff"/>
              </g>
              <g id="Group_113" data-name="Group 113">
                <path id="Path_143" data-name="Path 143" d="M220.12,350.039a1.117,1.117,0,0,1-.887-.075,1.177,1.177,0,0,1-.506-1.555c.092-.188,2.325-4.615,5.549-6.415a7.719,7.719,0,0,1,8.011.135,1.174,1.174,0,0,1,.318,1.6,1.106,1.106,0,0,1-1.568.284,5.507,5.507,0,0,0-5.637,0c-2.637,1.474-4.632,5.432-4.65,5.472A1.092,1.092,0,0,1,220.12,350.039Z" transform="translate(-218.607 -340.938)" fill="#fff"/>
              </g>
              <g id="Group_114" data-name="Group 114" transform="translate(8.239 5.621)">
                <path id="Path_144" data-name="Path 144" d="M224.5,353.029a1.116,1.116,0,0,1-.887-.073,1.181,1.181,0,0,1-.506-1.556c.094-.186,2.325-4.615,5.549-6.416a7.717,7.717,0,0,1,8.011.137,1.174,1.174,0,0,1,.32,1.6,1.108,1.108,0,0,1-1.568.286,5.5,5.5,0,0,0-5.637,0c-2.639,1.474-4.632,5.43-4.652,5.472A1.089,1.089,0,0,1,224.5,353.029Z" transform="translate(-222.99 -343.928)" fill="#fff"/>
              </g>
            </g>
          </g>
        </g>
        <g id="Group_118" data-name="Group 118" transform="translate(23.771 329.51)">
          <path id="Path_145" data-name="Path 145" d="M231.211,201.764l-13.4,110.908a370.747,370.747,0,0,0-23.483,37.188c-9.618,17.519-35.25,62.98-35.25,62.98l15.5,11.818,84.9-87.985,22.605-135.987Z" transform="translate(-153.363 -200.685)" fill="#001030"/>
          <path id="Path_146" data-name="Path 146" d="M181.075,327.012c-1.393,3.5-4,5.878-7.036,7.876l-18-15.2a27.09,27.09,0,0,1,6.133-8.327Z" transform="translate(-156.037 -103.324)" fill="#2e3052"/>
        </g>
        <g id="Group_119" data-name="Group 119" transform="translate(33.047 330.553)">
          <path id="Path_147" data-name="Path 147" d="M160.972,205.86s23.912,58.786,54.985,104.628c0,0,4.641,44.613,12.577,68.361,3.476,10.4,10.207,59.668,10.207,59.668l23.571-1.07L256.23,300.46l-24.936-99.22Z" transform="translate(-160.972 -201.24)" fill="#2e3052"/>
          <path id="Path_148" data-name="Path 148" d="M229.416,326.471c1.5,4.1,1.085,8.162,0,12.233l-27.282.763a31.381,31.381,0,0,1-1.128-11.927Z" transform="translate(-125.882 -91.074)" fill="#524e84"/>
        </g>
        <g id="Group_128" data-name="Group 128" transform="translate(32.236 102.101)">
          <g id="Group_123" data-name="Group 123" transform="translate(0 0)">
            <g id="Group_122" data-name="Group 122">
              <g id="Group_121" data-name="Group 121">
                <g id="Group_120" data-name="Group 120">
                  <path id="Path_149" data-name="Path 149" d="M271.168,101.033c3.555,4.434,10.682,49.617,11.8,95.485.028,1.06.051,2.113.081,3.167q.172,7.283.316,14.609.147,7.224.265,14.385c.128,7.8.242,15.485.335,22.885.011.842.017,1.677.028,2.511.086,7.216.156,14.132.207,20.592.008.848.013,1.682.019,2.511.075,9.7.12,18.284.126,25.177v.006c.006.968.006,1.884.006,2.782,0,4.82-.011,8.645-.045,11.224a242.21,242.21,0,0,1-34.248,6.669c-.3.034-.6.075-.91.109-.511.064-1.013.12-1.521.179l-.38.034c-1.981.22-3.949.41-5.936.571a229.052,229.052,0,0,1-29.44.528c-.863-.039-1.714-.085-2.579-.137-.767-.041-1.543-.086-2.321-.145-.344-.017-.7-.039-1.047-.068-.656-.047-1.3-.1-1.959-.145a239.074,239.074,0,0,1-43.254-7.6c-.073-5.679-.143-17.248-.167-32.167,0-.818-.006-1.649,0-2.489-.017-16.459.047-36.66.242-57.461.017-1.647.036-3.288.058-4.94q.025-2.859.056-5.748c.008-.321.008-.65.013-.972.011-.449.017-.9.023-1.353.006-.9.017-1.814.034-2.712q.025-1.979.058-3.94c.011-1,.028-1.993.039-2.989.03-1.981.064-3.962.092-5.93.7-41.3,2.09-79.246,4.746-88.9a7.076,7.076,0,0,1,.765-1.93,12.2,12.2,0,0,1,1.026-1.312,21.156,21.156,0,0,1,1.716-1.733c4.421-4.071,12.092-8.8,19.872-13.286.9-.524,1.82-1.043,2.718-1.56.137-.075,21.139-7.158,21.273-7.239l21.97,1.538S265.944,94.516,271.168,101.033Z" transform="translate(-160.541 -79.704)" fill="#896eff"/>
                </g>
              </g>
            </g>
          </g>
          <g id="Group_124" data-name="Group 124" transform="translate(0.36 79.674)">
            <path id="Path_150" data-name="Path 150" d="M182.362,123.24a1.143,1.143,0,0,0-2.049-.7,113.414,113.414,0,0,0-17.3,34.329c-.806,2.573-1.5,5.068-2.109,7.44-.011,1-.028,1.992-.039,2.989q-.034,1.962-.058,3.94c-.017.9-.028,1.808-.034,2.712-.006.455-.011.9-.023,1.353-.006.321-.006.65-.013.972a138.73,138.73,0,0,1,4.47-18.784,111.109,111.109,0,0,1,16.929-33.566,1.131,1.131,0,0,0,.231-.686Z" transform="translate(-160.732 -122.091)" fill="#007fe9"/>
          </g>
          <g id="Group_125" data-name="Group 125" transform="translate(25.318 159.089)">
            <path id="Path_151" data-name="Path 151" d="M175.153,205.929h0c23.724-.1,43.974-10.9,56.782-19.936a129.853,129.853,0,0,0,22.331-19.778,1.141,1.141,0,0,0-1.746-1.47,127.562,127.562,0,0,1-21.953,19.419c-12.53,8.833-32.318,19.382-55.423,19.483a1.141,1.141,0,0,0,.006,2.282Z" transform="translate(-174.01 -164.339)" fill="#654fc2"/>
          </g>
          <g id="Group_126" data-name="Group 126" transform="translate(45.015 194.341)">
            <path id="Path_152" data-name="Path 152" d="M190.657,197.494c20.587,0,41.115-11.731,42.047-12.271a1.142,1.142,0,0,0-1.143-1.977c-.241.139-24.4,13.934-45.812,11.718a1.141,1.141,0,1,0-.235,2.271A49.973,49.973,0,0,0,190.657,197.494Z" transform="translate(-184.489 -183.093)" fill="#654fc2"/>
          </g>
          <g id="Group_127" data-name="Group 127" transform="translate(38.928 12.629)">
            <path id="Path_153" data-name="Path 153" d="M187.609,111.42c19.838-5.5,36.487-22.288,37.241-23.056a1.142,1.142,0,0,0-1.63-1.6c-.2.2-19.788,19.946-41.017,23.53a1.142,1.142,0,1,0,.38,2.252A50.652,50.652,0,0,0,187.609,111.42Z" transform="translate(-181.25 -86.423)" fill="#654fc2"/>
          </g>
        </g>
        <g id="Group_140" data-name="Group 140" transform="translate(54.367)">
          <g id="Group_139" data-name="Group 139">
            <path id="Path_154" data-name="Path 154" d="M175.8,67.444c0,20.056,12.348,33.88,32.406,33.88S242.243,86.463,242.243,66.4s-11.878-35.254-31.934-35.254C186.252,31.151,175.8,47.386,175.8,67.444Z" transform="translate(-169.247 -20.315)" fill="#2e3052"/>
            <path id="Path_155" data-name="Path 155" d="M178.1,77.835s-7.011-10.6-3.3-18.773c3.838-8.455,1.889-6.6,2.844-12.955s5.583-8.97,11.124-9.885,1.744-7.293,9.423-9.583,13.833,5.727,18.771,2.135,17.068-5.359,20.476,0,6.438,5.323,10.07,5.15c4.372-.207,10.231,6.688,6.276,13.036s-10.617,3.827-9.7,8.2,6.553,12.073-1,21.861C240.8,79.986,178.1,77.835,178.1,77.835Z" transform="translate(-171.085 -25.386)" fill="#2e3052"/>
            <g id="Group_131" data-name="Group 131" transform="translate(0 52.047)">
              <path id="Path_156" data-name="Path 156" d="M183.374,56.793s-5.573-7.429-9.716-1.286,1.714,24.291,11.859,19.861Z" transform="translate(-172.314 -53.075)" fill="#fb876b"/>
              <g id="Group_129" data-name="Group 129" transform="translate(2.175 6.505)">
                <path id="Path_157" data-name="Path 157" d="M182.285,66.717a.857.857,0,0,1-.825-.626c-1.573-5.6-7.378-7.874-7.436-7.9a.857.857,0,0,1,.607-1.6c.273.1,6.669,2.585,8.479,9.036a.858.858,0,0,1-.594,1.058A.826.826,0,0,1,182.285,66.717Z" transform="translate(-173.471 -56.535)" fill="#d45c48"/>
              </g>
              <g id="Group_130" data-name="Group 130" transform="translate(4.272 9.873)">
                <path id="Path_158" data-name="Path 158" d="M175.444,62.319a.857.857,0,0,1-.72-1.321,7.805,7.805,0,0,1,3.218-2.6.857.857,0,0,1,.7,1.566,6.207,6.207,0,0,0-2.476,1.957A.858.858,0,0,1,175.444,62.319Z" transform="translate(-174.587 -58.327)" fill="#d45c48"/>
              </g>
            </g>
            <g id="Group_137" data-name="Group 137" transform="translate(66.346 52.047)">
              <path id="Path_159" data-name="Path 159" d="M209.753,56.793s5.573-7.429,9.716-1.286S217.755,79.8,207.61,75.368Z" transform="translate(-207.61 -53.075)" fill="#fb876b"/>
              <g id="Group_134" data-name="Group 134" transform="translate(1.357 6.505)">
                <g id="Group_133" data-name="Group 133">
                  <g id="Group_132" data-name="Group 132">
                    <path id="Path_160" data-name="Path 160" d="M209.191,66.717a.86.86,0,0,0,.825-.626c1.571-5.6,7.376-7.874,7.434-7.9a.857.857,0,0,0-.607-1.6c-.271.1-6.667,2.585-8.479,9.036a.859.859,0,0,0,.594,1.058A.83.83,0,0,0,209.191,66.717Z" transform="translate(-208.332 -56.535)" fill="#d45c48"/>
                  </g>
                </g>
              </g>
              <g id="Group_136" data-name="Group 136" transform="translate(4.369 9.873)">
                <g id="Group_135" data-name="Group 135">
                  <path id="Path_161" data-name="Path 161" d="M213.641,62.319A.857.857,0,0,0,214.359,61a7.791,7.791,0,0,0-3.216-2.6.858.858,0,0,0-.7,1.566,6.222,6.222,0,0,1,2.477,1.957A.855.855,0,0,0,213.641,62.319Z" transform="translate(-209.934 -58.327)" fill="#d45c48"/>
                </g>
              </g>
            </g>
            <path id="Path_162" data-name="Path 162" d="M213.124,73.124V92.216a13.218,13.218,0,0,1-8.961,5.158c-8.367.993-17.432-7.852-17.432-7.852V74.393Z" transform="translate(-159.631 16.609)" fill="#fba691"/>
            <path id="Path_163" data-name="Path 163" d="M213.124,73.124v8.008c-4.883,5.419-13.556,6.773-26.393,4.878V74.393Z" transform="translate(-159.631 16.609)" fill="#fb876b"/>
            <path id="Path_164" data-name="Path 164" d="M176.794,71.114q.11,1.568.265,3.173c.271,2.688.634,5.449,1.124,8.2.019.1.032.19.051.276,2.423,13.308,7.872,26.389,19.611,30.583,26.6,9.5,36.094-13.308,39.895-26.605.419-1.476.8-3.117,1.132-4.87.013-.068.024-.141.043-.22.368-1.968.69-4.066.959-6.226.2-1.6.376-3.222.53-4.857.387-3.974.639-7.959.8-11.494a18.762,18.762,0,0,0-12.023-18.419c-10.91-4.194-27.472-7.515-43.166,1.383a18.839,18.839,0,0,0-9.564,16.034C176.388,61.747,176.444,66.262,176.794,71.114Z" transform="translate(-168.693 -15.689)" fill="#fba691"/>
            <path id="Path_165" data-name="Path 165" d="M176.624,55.128q.11,1.568.265,3.173c.271,2.688.633,5.449,1.124,8.2.019.1.032.19.051.276,2.423,13.308,7.872,26.389,19.611,30.583,26.6,9.5,36.094-13.308,39.895-26.605.419-1.476.8-3.117,1.132-4.87.013-.068.024-.141.043-.22.368-1.968.69-4.066.959-6.226.2-1.6.376-3.222.53-4.857l-3.985,1.039c-1.139,6.021-2.848,14.79-5.073,18.88-3.489-8.511-22.878-1.481-22.878-1.481s-17.288-6.145-23.143-.038A161.114,161.114,0,0,1,179.9,55.62Zm31.119,21.04c13.955-1.914,17.423,1.654,18.075,5.786A23.991,23.991,0,0,1,213.93,89.1c-4.791,1.088-14.491.991-21.57-4.586C191.648,81.3,190.842,71.912,207.743,76.168Z" transform="translate(-168.523 0.297)" fill="#2e3052"/>
            <path id="Path_166" data-name="Path 166" d="M190.739,57.25c0,1.927-.992,3.489-2.216,3.489S186.3,59.176,186.3,57.25s.992-3.489,2.218-3.489S190.739,55.323,190.739,57.25Z" transform="translate(-160.006 -0.425)" fill="#2e3052"/>
            <path id="Path_167" data-name="Path 167" d="M204.426,57.25c0,1.927-.993,3.489-2.218,3.489s-2.216-1.562-2.216-3.489.993-3.489,2.216-3.489S204.426,55.323,204.426,57.25Z" transform="translate(-147.966 -0.425)" fill="#2e3052"/>
            <path id="Path_168" data-name="Path 168" d="M210.307,49.89s-7-2.765-12.383-.436l.54,2.994s7.906-.667,11.891.947A5.212,5.212,0,0,0,210.307,49.89Z" transform="translate(-149.786 -5.035)" fill="#2e3052"/>
            <path id="Path_169" data-name="Path 169" d="M182.976,49.89s7-2.765,12.385-.436l-.54,2.994s-7.906-.667-11.891.947A5.212,5.212,0,0,1,182.976,49.89Z" transform="translate(-163.222 -5.035)" fill="#2e3052"/>
            <g id="Group_138" data-name="Group 138" transform="translate(36.853 55.083)">
              <path id="Path_170" data-name="Path 170" d="M195.711,71.556a9.132,9.132,0,0,1-3.16-.273A.857.857,0,0,1,193,69.63c.806.216,2.712.481,3.453-.1a.93.93,0,0,0,.321-.844c-.056-3.008-2.088-12.87-2.109-12.97a.858.858,0,0,1,1.68-.346c.085.412,2.085,10.118,2.143,13.286a2.623,2.623,0,0,1-.983,2.229A3.647,3.647,0,0,1,195.711,71.556Z" transform="translate(-191.92 -54.69)" fill="#fb876b"/>
            </g>
            <path id="Path_171" data-name="Path 171" d="M187.7,66.4c.7,3.524,3.03,10.011,10.876,10.011,7.865,0,10.07-5.929,10.827-10.011Z" transform="translate(-158.778 10.693)" fill="#fff"/>
            <path id="Path_172" data-name="Path 172" d="M240.3,71.606h-3.885c.429-3.9-.989-8.615-2.16-11.756-2.654-7.122,3-10.263-1.573-13.831s-15.945-2.041-23.855-2.3c-7.957-.258-20.748-.145-23.852.575s-1.406,5.878-.267,9.883S180.9,62.6,180.066,66.74a18.285,18.285,0,0,0,0,4.867h-3.239c-.383-5.039-.442-9.731-.372-13.534a18.834,18.834,0,0,1,9.56-16.032c15.7-8.9,32.259-5.583,43.166-1.389a18.78,18.78,0,0,1,12.028,18.423C241.027,62.916,240.743,67.287,240.3,71.606Z" transform="translate(-168.692 -15.689)" fill="#2e3052"/>
          </g>
        </g>
        <g id="Group_144" data-name="Group 144" transform="translate(28.597 72.433)">
          <rect id="Rectangle_46" data-name="Rectangle 46" width="217.964" height="150.562" transform="translate(0.005 168.043) rotate(-50.441)" fill="#ffaa01"/>
          <path id="Path_173" data-name="Path 173" d="M297.421,63.925l7.442,6.147,5.063,145.53L166.051,238.109l-7.442-6.147,144.125-22.29Z" transform="translate(-158.6 -63.916)" fill="#f88800"/>
          <g id="Group_141" data-name="Group 141" transform="translate(109.055 149.835)">
            <path id="Path_174" data-name="Path 174" d="M223.678,143.632l3.992,109.23-4.021,4.867-2.959-2.444-4.069-111.393Z" transform="translate(-216.621 -143.632)" fill="#f88800"/>
          </g>
          <g id="Group_143" data-name="Group 143" transform="translate(141.417 93.769)">
            <g id="Group_142" data-name="Group 142">
              <path id="Path_175" data-name="Path 175" d="M344.753,113.805l2.566,2.12-4.384,5.308-108.02,16.7-1.077-6.979Z" transform="translate(-233.838 -113.805)" fill="#f88800"/>
            </g>
          </g>
          <path id="Path_176" data-name="Path 176" d="M158.6,231.965l144.135-22.291L297.42,63.922Z" transform="translate(-158.604 -63.918)" fill="#fdcc50"/>
        </g>
        <g id="Group_149" data-name="Group 149" transform="translate(28.99 126.075)">
          <path id="Path_177" data-name="Path 177" d="M221.3,183.823h4.006c3.579,0,6.3-2.107,7.906-5.306a52.044,52.044,0,0,1,2.34-4.889c1.874-2.5,6.981-6.686,8.895-6.814s1.56,3.432.209,4.994-3.485,3.545-4.63,5.752,9.363,6.679,13.628,7.72,11.756-1.25,12.483,2.288-4.889,4.056-4.889,4.056,1.647,3.186-3.017,5.825a4.3,4.3,0,0,1-2.184,4.786s.342,3.953-3.158,4.994-14.423,4.209-35.854-8.8Z" transform="translate(-107.595 -27.05)" fill="#fba691"/>
          <g id="Group_148" data-name="Group 148">
            <g id="Group_147" data-name="Group 147">
              <g id="Group_146" data-name="Group 146">
                <g id="Group_145" data-name="Group 145">
                  <path id="Path_178" data-name="Path 178" d="M198.986,158.251c8.09,30.577,16.026,44.092,16.026,44.092s9.079,13.87,27.735,27c12.957,9.115,33.778,19.891,33.778,19.891-3.592,4.669-6.128,13.9-4.741,16.662-43.286,0-81.145-41.011-81.145-41.011-30.288-52.709-32.263-95.636-31.767-111.273a29.842,29.842,0,0,1,4.81-15.5,15.484,15.484,0,0,1,5.823-5.652A31.539,31.539,0,0,1,187,112.53C191.516,127.764,198.986,158.251,198.986,158.251Z" transform="translate(-158.814 -92.458)" fill="#735bdc"/>
                </g>
              </g>
            </g>
          </g>
        </g>
        <path id="Path_179" data-name="Path 179" d="M295.952,129.886s-9.628-3.406-14.053-1.564,7.836,8.483,7.836,8.483-14.865-7.912-17.432-4.722,11.654,11.288,11.654,11.288-10.889-3.827-13.1-1.581,7.94,8.594,7.94,8.594-8.938-2.158-10.8-.639,6.058,7.882,11.087,9.566,5.838-5.395,5.838-5.395,4.729-4.164,4.1-7.055c0,0,4.908-3.31,5.254-6.692C294.274,140.17,301.2,134.072,295.952,129.886Z" transform="translate(-34.021 64.686)" fill="#fba691"/>
      </g>
    </g>
  </g>
</svg>
