<svg width="219" height="209" viewBox="0 0 219 209" fill="none" xmlns="http://www.w3.org/2000/svg">
<g clip-path="url(#clip0_41_71)">
<path d="M209 0H10C4.47715 0 0 4.47715 0 10V199C0 204.523 4.47715 209 10 209H209C214.523 209 219 204.523 219 199V10C219 4.47715 214.523 0 209 0Z" fill="white"/>
<path d="M63.7031 176.068V175.248C64.6016 175.202 65.1094 175.128 65.2266 175.023C65.3438 174.919 65.4154 174.662 65.4414 174.252C65.487 173.393 65.5098 171.791 65.5098 169.447C65.5098 168.549 65.4967 167.247 65.4707 165.541C65.4577 164.376 65.4316 163.738 65.3926 163.627C65.3535 163.51 65.2852 163.425 65.1875 163.373C65.0443 163.301 64.5495 163.24 63.7031 163.188V162.367C65.0443 162.419 66.0697 162.445 66.7793 162.445C68.0033 162.445 69.11 162.419 70.0996 162.367V163.188C69.2142 163.24 68.7129 163.311 68.5957 163.402C68.485 163.487 68.4134 163.689 68.3809 164.008C68.3223 164.633 68.293 165.899 68.293 167.807C68.293 170.346 68.3027 172.117 68.3223 173.119C68.3418 174.115 68.4004 174.708 68.498 174.896C68.5371 174.981 68.6185 175.049 68.7422 175.102C68.8724 175.147 69.3249 175.196 70.0996 175.248V176.068L68.9473 176.039C68.2181 176.013 67.5671 176 66.9941 176L63.7031 176.068ZM71.3496 162.973V162.406C72.2741 162.283 73.0033 162.156 73.5371 162.025C74.071 161.895 74.6471 161.71 75.2656 161.469L75.5195 161.684C75.4219 164.008 75.373 167.253 75.373 171.42C75.373 172.26 75.3861 173.109 75.4121 173.969C75.4251 174.516 75.4544 174.835 75.5 174.926C75.5521 175.01 75.6302 175.079 75.7344 175.131C75.8451 175.183 76.2357 175.222 76.9062 175.248V176.059L75.8809 176.029C75.2428 176.01 74.7057 176 74.2695 176L71.3496 176.059V175.248L72.0723 175.209C72.3978 175.196 72.6061 175.137 72.6973 175.033C72.7949 174.923 72.8535 174.512 72.873 173.803C72.9056 172.82 72.9219 171.423 72.9219 169.613L72.9121 165.443C72.9056 164.174 72.8698 163.458 72.8047 163.295C72.7786 163.217 72.7298 163.158 72.6582 163.119C72.541 163.048 72.1048 162.999 71.3496 162.973ZM78.0098 162.973V162.406C78.9342 162.283 79.6634 162.156 80.1973 162.025C80.7311 161.895 81.3073 161.71 81.9258 161.469L82.1797 161.684C82.082 164.008 82.0332 167.253 82.0332 171.42C82.0332 172.26 82.0462 173.109 82.0723 173.969C82.0853 174.516 82.1146 174.835 82.1602 174.926C82.2122 175.01 82.2904 175.079 82.3945 175.131C82.5052 175.183 82.8958 175.222 83.5664 175.248V176.059L82.541 176.029C81.903 176.01 81.3659 176 80.9297 176L78.0098 176.059V175.248L78.7324 175.209C79.0579 175.196 79.2663 175.137 79.3574 175.033C79.4551 174.923 79.5137 174.512 79.5332 173.803C79.5658 172.82 79.582 171.423 79.582 169.613L79.5723 165.443C79.5658 164.174 79.5299 163.458 79.4648 163.295C79.4388 163.217 79.39 163.158 79.3184 163.119C79.2012 163.048 78.765 162.999 78.0098 162.973ZM84.4941 168.148V167.396C85.5358 167.299 86.5091 167.113 87.4141 166.84L88.3809 166.498C88.498 166.498 88.5566 166.573 88.5566 166.723L88.5176 167.299C88.4069 168.796 88.3516 170.242 88.3516 171.635C88.3516 172.533 88.3971 173.132 88.4883 173.432C88.5794 173.725 88.7422 173.952 88.9766 174.115C89.2174 174.278 89.5365 174.359 89.9336 174.359C90.3958 174.359 90.7995 174.232 91.1445 173.979C91.4961 173.725 91.7109 173.445 91.7891 173.139C91.8737 172.833 91.916 171.96 91.916 170.521C91.916 169.369 91.8965 168.695 91.8574 168.5C91.8314 168.396 91.7858 168.324 91.7207 168.285C91.623 168.233 91.1803 168.188 90.3926 168.148V167.396C91.7272 167.247 92.707 167.071 93.332 166.869L94.3672 166.498C94.4779 166.498 94.5332 166.566 94.5332 166.703L94.5137 166.967C94.403 168.1 94.3477 170.154 94.3477 173.129C94.3477 174.04 94.3737 174.613 94.4258 174.848C94.4583 174.958 94.5104 175.036 94.582 175.082C94.6862 175.141 95.0964 175.196 95.8125 175.248V176.059C95.0638 176.02 94.3216 176 93.5859 176C92.987 176 92.4303 176.02 91.916 176.059L91.8281 175.883C91.8607 175.557 91.89 175.046 91.916 174.35C91.3105 174.838 90.7246 175.375 90.1582 175.961C89.696 176.163 89.2402 176.264 88.791 176.264C88.1921 176.264 87.6712 176.143 87.2285 175.902C86.7858 175.661 86.457 175.349 86.2422 174.965C86.0339 174.574 85.9297 174.027 85.9297 173.324L85.9492 172.26C85.9688 171.602 85.9785 171.068 85.9785 170.658C85.9785 169.499 85.9557 168.806 85.9102 168.578C85.8776 168.428 85.8092 168.324 85.7051 168.266C85.6009 168.201 85.1973 168.161 84.4941 168.148ZM98.0977 172.885C98.1302 173.725 98.1725 174.193 98.2246 174.291C98.3678 174.558 98.6348 174.792 99.0254 174.994C99.4225 175.196 99.8815 175.297 100.402 175.297C101.04 175.297 101.516 175.167 101.828 174.906C102.147 174.646 102.307 174.301 102.307 173.871C102.307 173.5 102.193 173.207 101.965 172.992C101.737 172.777 101.249 172.589 100.5 172.426C99.3672 172.178 98.6283 171.964 98.2832 171.781C97.9447 171.592 97.6745 171.316 97.4727 170.951C97.2708 170.587 97.1699 170.15 97.1699 169.643C97.1699 169.044 97.3197 168.513 97.6191 168.051C97.9186 167.589 98.3483 167.227 98.9082 166.967C99.4746 166.7 100.22 166.566 101.145 166.566C102.108 166.566 103.003 166.723 103.83 167.035C103.739 167.562 103.677 168.383 103.645 169.496H102.873C102.834 168.793 102.779 168.38 102.707 168.256C102.609 168.067 102.424 167.908 102.15 167.777C101.773 167.602 101.369 167.514 100.939 167.514C100.393 167.514 99.9661 167.637 99.6602 167.885C99.3607 168.126 99.2109 168.432 99.2109 168.803C99.2109 169.148 99.3477 169.421 99.6211 169.623C99.8945 169.831 100.546 170.03 101.574 170.219C102.284 170.349 102.775 170.469 103.049 170.58C103.505 170.775 103.85 171.062 104.084 171.439C104.325 171.811 104.445 172.283 104.445 172.855C104.445 173.956 104.019 174.799 103.166 175.385C102.313 175.971 101.298 176.264 100.119 176.264C99.7285 176.264 99.2956 176.218 98.8203 176.127C98.3451 176.036 97.8275 175.902 97.2676 175.727L97.1211 175.561C97.1992 174.994 97.248 174.102 97.2676 172.885H98.0977ZM105.451 168.217L106.75 167.367C106.737 166.215 106.708 165.206 106.662 164.34C107.548 164.066 108.384 163.734 109.172 163.344L109.465 163.568C109.322 164.512 109.224 165.779 109.172 167.367C109.471 167.413 109.768 167.436 110.061 167.436C110.725 167.436 111.32 167.393 111.848 167.309L111.936 167.367L111.848 167.719C111.75 168.083 111.678 168.419 111.633 168.725C110.871 168.666 110.311 168.637 109.953 168.637C109.686 168.637 109.426 168.653 109.172 168.686C109.159 169.343 109.152 169.923 109.152 170.424C109.152 172.611 109.217 173.855 109.348 174.154C109.478 174.454 109.787 174.604 110.275 174.604C110.419 174.604 110.572 174.587 110.734 174.555C110.904 174.522 111.083 174.477 111.271 174.418L111.438 174.789C111.047 175.225 110.666 175.678 110.295 176.146C110.054 176.186 109.833 176.215 109.631 176.234C109.429 176.254 109.243 176.264 109.074 176.264C108.527 176.264 108.068 176.169 107.697 175.98C107.333 175.792 107.066 175.548 106.896 175.248C106.734 174.949 106.652 174.503 106.652 173.91C106.652 173.598 106.669 172.777 106.701 171.449C106.734 170.284 106.75 169.363 106.75 168.686L106.252 168.666C106.044 168.666 105.777 168.686 105.451 168.725V168.217ZM112.092 176.059V175.248C112.749 175.215 113.127 175.176 113.225 175.131C113.303 175.092 113.365 175.03 113.41 174.945C113.482 174.789 113.524 174.444 113.537 173.91C113.563 172.96 113.576 172.094 113.576 171.312C113.576 169.809 113.557 168.917 113.518 168.637C113.498 168.474 113.439 168.36 113.342 168.295C113.244 168.223 112.827 168.174 112.092 168.148V167.396C113.407 167.273 114.348 167.12 114.914 166.938L115.92 166.566C116.011 166.566 116.057 166.628 116.057 166.752L116.047 166.889C116.021 167.299 116.008 167.888 116.008 168.656C116.34 168.337 116.708 167.934 117.111 167.445C117.411 167.081 117.671 166.843 117.893 166.732C118.114 166.622 118.41 166.566 118.781 166.566C118.99 166.566 119.201 166.602 119.416 166.674C119.357 167.325 119.318 168.21 119.299 169.33L118.859 169.486C118.71 169.232 118.544 169.057 118.361 168.959C118.186 168.855 117.954 168.803 117.668 168.803C117.277 168.803 116.942 168.904 116.662 169.105C116.382 169.307 116.203 169.538 116.125 169.799C116.073 169.994 116.047 170.658 116.047 171.791C116.047 173.438 116.07 174.398 116.115 174.672C116.141 174.854 116.203 174.978 116.301 175.043C116.451 175.141 116.942 175.209 117.775 175.248V176.059L116.682 176.029C115.985 176.01 115.383 176 114.875 176C114.393 176 113.833 176.01 113.195 176.029L112.092 176.059ZM129.24 175.248V176.059L128.488 176.029C128.091 176.01 127.694 176 127.297 176C126.685 176 126.105 176.02 125.559 176.059L125.461 175.951L125.559 174.604L123.518 176.137C123.153 176.221 122.831 176.264 122.551 176.264C121.861 176.264 121.327 176.059 120.949 175.648C120.572 175.238 120.383 174.639 120.383 173.852C120.383 172.882 120.64 172.198 121.154 171.801C121.818 171.28 123.286 170.814 125.559 170.404C125.546 169.636 125.412 169.079 125.158 168.734C124.8 168.259 124.247 168.021 123.498 168.021C123.322 168.021 123.14 168.044 122.951 168.09C122.769 168.129 122.583 168.194 122.395 168.285L121.955 169.33L121.281 169.164L121.301 168.725L121.291 168.295L121.281 167.904C122.277 167.286 122.993 166.898 123.43 166.742C123.749 166.625 124.191 166.566 124.758 166.566C125.526 166.566 126.151 166.684 126.633 166.918C127.115 167.146 127.466 167.458 127.688 167.855C127.909 168.253 128.02 168.832 128.02 169.594C128.02 169.913 128.007 170.482 127.98 171.303C127.954 172.149 127.941 172.829 127.941 173.344C127.941 174.158 127.964 174.652 128.01 174.828C128.036 174.932 128.098 175.014 128.195 175.072C128.299 175.131 128.648 175.189 129.24 175.248ZM125.559 171.244C124.413 171.492 123.667 171.762 123.322 172.055C122.977 172.341 122.805 172.729 122.805 173.217C122.805 173.614 122.915 173.926 123.137 174.154C123.358 174.382 123.638 174.496 123.977 174.496C124.491 174.496 125.018 174.206 125.559 173.627V171.244ZM129.904 168.217L131.203 167.367C131.19 166.215 131.161 165.206 131.115 164.34C132.001 164.066 132.837 163.734 133.625 163.344L133.918 163.568C133.775 164.512 133.677 165.779 133.625 167.367C133.924 167.413 134.221 167.436 134.514 167.436C135.178 167.436 135.773 167.393 136.301 167.309L136.389 167.367L136.301 167.719C136.203 168.083 136.132 168.419 136.086 168.725C135.324 168.666 134.764 168.637 134.406 168.637C134.139 168.637 133.879 168.653 133.625 168.686C133.612 169.343 133.605 169.923 133.605 170.424C133.605 172.611 133.671 173.855 133.801 174.154C133.931 174.454 134.24 174.604 134.729 174.604C134.872 174.604 135.025 174.587 135.188 174.555C135.357 174.522 135.536 174.477 135.725 174.418L135.891 174.789C135.5 175.225 135.119 175.678 134.748 176.146C134.507 176.186 134.286 176.215 134.084 176.234C133.882 176.254 133.697 176.264 133.527 176.264C132.98 176.264 132.521 176.169 132.15 175.98C131.786 175.792 131.519 175.548 131.35 175.248C131.187 174.949 131.105 174.503 131.105 173.91C131.105 173.598 131.122 172.777 131.154 171.449C131.187 170.284 131.203 169.363 131.203 168.686L130.705 168.666C130.497 168.666 130.23 168.686 129.904 168.725V168.217ZM137.141 171.42C137.141 169.877 137.502 168.718 138.225 167.943C139.09 167.025 140.34 166.566 141.975 166.566C143.602 166.566 144.79 166.934 145.539 167.67C146.288 168.406 146.662 169.568 146.662 171.156C146.662 172.79 146.229 174.05 145.363 174.936C144.504 175.821 143.306 176.264 141.77 176.264C140.259 176.264 139.11 175.85 138.322 175.023C137.535 174.197 137.141 172.995 137.141 171.42ZM139.846 170.746C139.846 172.478 140.067 173.712 140.51 174.447C140.855 175.014 141.372 175.297 142.062 175.297C142.668 175.297 143.133 175.056 143.459 174.574C143.791 174.092 143.957 173.217 143.957 171.947C143.957 170.202 143.755 168.995 143.352 168.324C143.02 167.79 142.502 167.523 141.799 167.523C141.193 167.523 140.715 167.768 140.363 168.256C140.018 168.744 139.846 169.574 139.846 170.746ZM147.678 176.059V175.248C148.335 175.215 148.713 175.176 148.811 175.131C148.889 175.092 148.951 175.03 148.996 174.945C149.068 174.789 149.11 174.444 149.123 173.91C149.149 172.96 149.162 172.094 149.162 171.312C149.162 169.809 149.143 168.917 149.104 168.637C149.084 168.474 149.025 168.36 148.928 168.295C148.83 168.223 148.413 168.174 147.678 168.148V167.396C148.993 167.273 149.934 167.12 150.5 166.938L151.506 166.566C151.597 166.566 151.643 166.628 151.643 166.752L151.633 166.889C151.607 167.299 151.594 167.888 151.594 168.656C151.926 168.337 152.294 167.934 152.697 167.445C152.997 167.081 153.257 166.843 153.479 166.732C153.7 166.622 153.996 166.566 154.367 166.566C154.576 166.566 154.787 166.602 155.002 166.674C154.943 167.325 154.904 168.21 154.885 169.33L154.445 169.486C154.296 169.232 154.13 169.057 153.947 168.959C153.771 168.855 153.54 168.803 153.254 168.803C152.863 168.803 152.528 168.904 152.248 169.105C151.968 169.307 151.789 169.538 151.711 169.799C151.659 169.994 151.633 170.658 151.633 171.791C151.633 173.438 151.656 174.398 151.701 174.672C151.727 174.854 151.789 174.978 151.887 175.043C152.036 175.141 152.528 175.209 153.361 175.248V176.059L152.268 176.029C151.571 176.01 150.969 176 150.461 176C149.979 176 149.419 176.01 148.781 176.029L147.678 176.059Z" fill="black"/>
<circle cx="109.5" cy="80.5" r="55.5" fill="#DA6C27"/>
<path d="M89.7312 94L101.375 63.0625H106.719L118.362 94H112.794L109.644 85.8438H98.225L95.1313 94H89.7312ZM99.9687 80.8938H107.844L103.906 69.3063L99.9687 80.8938ZM121.859 94V72.4H127.259V94H121.859ZM122.14 67.7312C122.815 68.4063 123.621 68.7438 124.559 68.7438C125.534 68.7438 126.34 68.4063 126.978 67.7312C127.653 67.0563 127.99 66.25 127.99 65.3125C127.99 64.3375 127.653 63.5313 126.978 62.8938C126.34 62.2188 125.534 61.8812 124.559 61.8812C123.621 61.8812 122.815 62.2188 122.14 62.8938C121.465 63.5313 121.128 64.3375 121.128 65.3125C121.128 66.25 121.465 67.0563 122.14 67.7312Z" fill="white"/>
</g>
<defs>
<clipPath id="clip0_41_71">
<rect width="219" height="209" fill="white"/>
</clipPath>
</defs>
</svg>
