<svg xmlns="http://www.w3.org/2000/svg" width="482.748" height="392.259" viewBox="0 0 482.748 392.259">
  <g id="undraw_Design_notes_re_eklr" transform="translate(0 0)">
    <path id="Path_1" data-name="Path 1" d="M393.425,526.743a5.395,5.395,0,0,1-2.75-7.8L378.3,504.3l9.892-1.183L398.427,517.2a5.424,5.424,0,0,1-5,9.54Z" transform="translate(-255.858 -278.494)" fill="#ffb6b6"/>
    <path id="Path_2" data-name="Path 2" d="M161.427,696.562H168l3.129-25.368h-9.707Z" transform="translate(-74.826 -311.12)" fill="#ffb6b6"/>
    <path id="Path_3" data-name="Path 3" d="M308.367,796.344h1.851l7.227-2.939,3.874,2.939h0a8.255,8.255,0,0,1,8.255,8.254v.268H308.368Z" transform="translate(-223.444 -413.05)" fill="#2f2e41"/>
    <path id="Path_4" data-name="Path 4" d="M208.937,689.375l6.416,1.448,8.64-24.056-9.469-2.138Z" transform="translate(-96.849 -308.077)" fill="#ffb6b6"/>
    <path id="Path_5" data-name="Path 5" d="M355.213,789.818l1.806.408,7.7-1.275,3.131,3.72h0a8.255,8.255,0,0,1,6.233,9.87l-.059.262-20.686-4.671Z" transform="translate(-244.289 -410.985)" fill="#2f2e41"/>
    <path id="Path_6" data-name="Path 6" d="M289.05,549.867,295,616.5s-2.228,40,4.962,54.081h10.429l5.163-57.734L316.2,574.1l22.358,32.693-14.241,62.849,12.835,1.147,23.108-68.206-25.387-64.029Z" transform="translate(-214.49 -294.917)" fill="#2f2e41"/>
    <circle id="Ellipse_1" data-name="Ellipse 1" cx="15.338" cy="15.338" r="15.338" transform="translate(65.451 118.161)" fill="#ffb8b8"/>
    <path id="Path_7" data-name="Path 7" d="M311.906,378.263l-17.819-5.4-2.319-7.131-19.109,3.1L268.6,375.8l-13.143,12.221,15.4,69.626-.466,15.207s9.856,4.437,52.6-5.779c.513-.122-.56-.659-.56-.659Z" transform="translate(-198.918 -214.81)" fill="#3f3d56"/>
    <path id="Path_8" data-name="Path 8" d="M369.061,464.155l-20.888-27.971-5.922-49.573.173-.083a10.827,10.827,0,0,1,15.515,9.32l1.231,30.633,20.745,27.377Z" transform="translate(-239.151 -223.952)" fill="#3f3d56"/>
    <path id="Path_9" data-name="Path 9" d="M270.55,349.095q-.16-.219-.317-.441c-.042.089-.076.181-.124.268Z" transform="translate(-205.71 -206.893)" fill="#2f2e41"/>
    <path id="Path_10" data-name="Path 10" d="M301.351,305.967a9.787,9.787,0,0,0-5.121-4.947,9.344,9.344,0,0,0-7.005.006,14.11,14.11,0,0,0-6.654-2.423,7.442,7.442,0,0,0-6.344,2.692,10.353,10.353,0,0,1-1.108,1.44c-1.175,1.088-2.962.931-4.524.709l2.1,1.8-2.545.665,2.969,1.8c-2.874,1.725-4.18,5.489-3.835,8.908a18.838,18.838,0,0,0,3.757,8.828c.745-1.573.585-3.454.572-5.226-.013-1.872.318-4,1.818-5.043a6,6,0,0,1,3.532-.73,162.29,162.29,0,0,1,18.41,1.149,5.182,5.182,0,0,1,2.357.684c1.351.922,1.614,2.824,1.75,4.493a32.553,32.553,0,0,0,1.039-8.439A15.554,15.554,0,0,0,301.351,305.967Z" transform="translate(-205.305 -183.688)" fill="#2f2e41"/>
    <circle id="Ellipse_2" data-name="Ellipse 2" cx="24.141" cy="24.141" r="24.141" transform="translate(70.398 260.187)" fill="#f0f0f0"/>
    <path id="Path_11" data-name="Path 11" d="M304.967,568.405a24.816,24.816,0,0,0-3.7.278c-.631.092-1.242.21-1.848.355a24.665,24.665,0,0,0-10.456,42.81c.413.349.831.687,1.266,1.008a24.672,24.672,0,1,0,14.742-44.452Zm0,48.282a23.468,23.468,0,0,1-13.948-4.576c-.44-.322-.864-.654-1.277-1.008a23.591,23.591,0,0,1,10.526-41.152c.6-.123,1.2-.22,1.813-.295a23.3,23.3,0,0,1,2.886-.177,23.6,23.6,0,1,1,0,47.209Z" transform="translate(-210.429 -308.755)" fill="#3f3d56"/>
    <rect id="Rectangle_1" data-name="Rectangle 1" width="26.823" height="3.219" rx="1.609" transform="translate(107.95 279.499) rotate(180)" fill="#896eff"/>
    <rect id="Rectangle_2" data-name="Rectangle 2" width="26.823" height="3.219" rx="1.609" transform="translate(107.95 285.937) rotate(180)" fill="#896eff"/>
    <rect id="Rectangle_3" data-name="Rectangle 3" width="26.823" height="3.219" rx="1.609" transform="translate(107.95 292.374) rotate(180)" fill="#896eff"/>
    <path id="Path_12" data-name="Path 12" d="M312.423,563.118a5.395,5.395,0,0,1-4.281-7.078l-15.1-11.81,9.443-3.172,12.892,11.7a5.424,5.424,0,0,1-2.954,10.359Z" transform="translate(-216.34 -296.078)" fill="#ffb6b6"/>
    <path id="Path_13" data-name="Path 13" d="M259.81,406.9l-9.3.2a17.742,17.742,0,0,0-5.721,13.214v43.942l34.9,29.175,11.284-10.927L265,454.209Z" transform="translate(-193.973 -233.894)" fill="#3f3d56"/>
    <rect id="Rectangle_4" data-name="Rectangle 4" width="345.411" height="221.216" transform="translate(137.338 68.439)" fill="#e6e6e6"/>
    <rect id="Rectangle_5" data-name="Rectangle 5" width="325.656" height="180.383" transform="translate(147.215 96.185)" fill="#fff"/>
    <rect id="Rectangle_6" data-name="Rectangle 6" width="345.411" height="14.674" transform="translate(137.191 68.243)" fill="#896eff"/>
    <circle id="Ellipse_3" data-name="Ellipse 3" cx="2.72" cy="2.72" r="2.72" transform="translate(145.376 73.025)" fill="#fff"/>
    <circle id="Ellipse_4" data-name="Ellipse 4" cx="2.72" cy="2.72" r="2.72" transform="translate(155.699 73.025)" fill="#fff"/>
    <circle id="Ellipse_5" data-name="Ellipse 5" cx="2.72" cy="2.72" r="2.72" transform="translate(166.023 73.025)" fill="#fff"/>
    <rect id="Rectangle_7" data-name="Rectangle 7" width="69.732" height="39.349" transform="translate(274.928 114.901)" fill="#896eff"/>
    <rect id="Rectangle_8" data-name="Rectangle 8" width="69.732" height="42.337" transform="translate(274.928 165.208)" fill="#e6e6e6"/>
    <rect id="Rectangle_9" data-name="Rectangle 9" width="83.679" height="62.297" transform="translate(359.603 114.901)" fill="#e6e6e6"/>
    <rect id="Rectangle_10" data-name="Rectangle 10" width="83.679" height="62.297" transform="translate(359.603 195.555)" fill="#896eff"/>
    <rect id="Rectangle_11" data-name="Rectangle 11" width="83.679" height="62.297" transform="translate(177.204 114.901)" fill="#e6e6e6"/>
    <path id="Path_14" data-name="Path 14" d="M600.611,79.642l-23.837,89.673,1.092.29L601.48,80.772Z" transform="translate(-267.354 -36.917)" fill="#3f3d56"/>
    <path id="Path_15" data-name="Path 15" d="M729.061,421.592l-23.614,88.833.869,1.13,23.837-89.673Z" transform="translate(-326.998 -195.422)" fill="#3f3d56"/>
    <path id="Path_16" data-name="Path 16" d="M562.138,481.807h-80.47a1.878,1.878,0,0,1,0-3.755h80.47a1.878,1.878,0,1,1,0,3.755Z" transform="translate(-302.904 -266.873)" fill="#e6e6e6"/>
    <path id="Path_17" data-name="Path 17" d="M562.138,461.807h-80.47a1.878,1.878,0,1,1,0-3.755h80.47a1.878,1.878,0,1,1,0,3.755Z" transform="translate(-302.904 -257.603)" fill="#e6e6e6"/>
    <path id="Path_18" data-name="Path 18" d="M562.138,501.807h-80.47a1.878,1.878,0,1,1,0-3.755h80.47a1.878,1.878,0,1,1,0,3.755Z" transform="translate(-302.904 -276.144)" fill="#e6e6e6"/>
    <path id="Path_19" data-name="Path 19" d="M562.138,521.807h-80.47a1.878,1.878,0,0,1,0-3.755h80.47a1.878,1.878,0,1,1,0,3.755Z" transform="translate(-302.904 -285.414)" fill="#e6e6e6"/>
    <path id="Path_20" data-name="Path 20" d="M562.138,541.807h-80.47a1.878,1.878,0,1,1,0-3.755h80.47a1.878,1.878,0,1,1,0,3.755Z" transform="translate(-302.904 -294.685)" fill="#e6e6e6"/>
    <path id="Path_21" data-name="Path 21" d="M562.138,561.807h-80.47a1.878,1.878,0,1,1,0-3.755h80.47a1.878,1.878,0,1,1,0,3.755Z" transform="translate(-302.904 -303.956)" fill="#e6e6e6"/>
    <path id="Path_22" data-name="Path 22" d="M730.438,501.807H663.916a1.878,1.878,0,0,1,0-3.755h66.522a1.878,1.878,0,1,1,0,3.755Z" transform="translate(-387.382 -276.144)" fill="#e6e6e6"/>
    <path id="Path_23" data-name="Path 23" d="M730.438,521.807H663.916a1.878,1.878,0,0,1,0-3.755h66.522a1.878,1.878,0,1,1,0,3.755Z" transform="translate(-387.382 -285.414)" fill="#e6e6e6"/>
    <path id="Path_24" data-name="Path 24" d="M730.438,541.807H663.916a1.878,1.878,0,0,1,0-3.755h66.522a1.878,1.878,0,1,1,0,3.755Z" transform="translate(-387.382 -294.685)" fill="#e6e6e6"/>
    <path id="Path_25" data-name="Path 25" d="M730.438,561.807H663.916a1.878,1.878,0,0,1,0-3.755h66.522a1.878,1.878,0,1,1,0,3.755Z" transform="translate(-387.382 -303.956)" fill="#e6e6e6"/>
    <circle id="Ellipse_6" data-name="Ellipse 6" cx="24.141" cy="24.141" r="24.141" transform="translate(310.735 0.536)" fill="#f0f0f0"/>
    <path id="Path_26" data-name="Path 26" d="M752.967,84.4a24.8,24.8,0,0,0-3.7.279c-.631.092-1.242.21-1.848.355a24.665,24.665,0,0,0-10.456,42.81c.413.349.831.687,1.266,1.009A24.672,24.672,0,1,0,752.967,84.4Zm0,48.282a23.468,23.468,0,0,1-13.948-4.576c-.44-.322-.864-.654-1.277-1.009A23.591,23.591,0,0,1,748.268,85.95c.6-.123,1.2-.22,1.813-.3a23.356,23.356,0,0,1,2.886-.177,23.6,23.6,0,0,1,0,47.209Z" transform="translate(-418.092 -84.405)" fill="#3f3d56"/>
    <rect id="Rectangle_12" data-name="Rectangle 12" width="26.823" height="3.219" rx="1.609" transform="translate(348.287 19.849) rotate(180)" fill="#896eff"/>
    <rect id="Rectangle_13" data-name="Rectangle 13" width="26.823" height="3.219" rx="1.609" transform="translate(348.287 26.287) rotate(180)" fill="#896eff"/>
    <rect id="Rectangle_14" data-name="Rectangle 14" width="26.823" height="3.219" rx="1.609" transform="translate(348.287 32.724) rotate(180)" fill="#896eff"/>
    <circle id="Ellipse_7" data-name="Ellipse 7" cx="24.141" cy="24.141" r="24.141" transform="translate(351.506 312.76)" fill="#f0f0f0"/>
    <path id="Path_27" data-name="Path 27" d="M828.967,666.405a24.785,24.785,0,0,0-3.7.279c-.631.092-1.242.21-1.848.354a24.665,24.665,0,0,0-10.456,42.81c.413.349.831.687,1.266,1.009A24.672,24.672,0,1,0,828.967,666.4Zm0,48.282a23.467,23.467,0,0,1-13.948-4.576c-.44-.322-.864-.654-1.277-1.009a23.59,23.59,0,0,1,10.525-41.152c.6-.123,1.2-.22,1.813-.3a23.322,23.322,0,0,1,2.886-.177,23.6,23.6,0,0,1,0,47.209Z" transform="translate(-453.32 -354.181)" fill="#3f3d56"/>
    <rect id="Rectangle_15" data-name="Rectangle 15" width="26.823" height="3.219" rx="1.609" transform="translate(389.059 332.073) rotate(180)" fill="#896eff"/>
    <rect id="Rectangle_16" data-name="Rectangle 16" width="26.823" height="3.219" rx="1.609" transform="translate(389.059 338.51) rotate(180)" fill="#896eff"/>
    <rect id="Rectangle_17" data-name="Rectangle 17" width="26.823" height="3.219" rx="1.609" transform="translate(389.059 344.948) rotate(180)" fill="#896eff"/>
    <path id="Path_28" data-name="Path 28" d="M336.481,814.491H150.706a.639.639,0,1,1,0-1.278H336.481a.639.639,0,1,1,0,1.278Z" transform="translate(-150.067 -422.232)" fill="#cacaca"/>
  </g>
</svg>
